<svg width="16" height="16" viewBox="0 0 16 16" fill="none" xmlns="http://www.w3.org/2000/svg">
<path d="M14.8293 12.6829V14.8293H1.17073V12.6829H0V16H16V12.6829H14.8293Z" fill="white"/>
<path d="M2.73168 2.84488C2.73083 3.10803 2.69808 3.3701 2.63412 3.62537L2.31607 4.89561C2.05857 5.93076 2.18328 7.02407 2.66729 7.97463L2.82924 8.28878C3.02844 8.68067 3.14618 9.10886 3.17535 9.5475C3.20453 9.98615 3.14454 10.4262 2.999 10.841C2.83671 11.2999 2.75165 11.7825 2.74729 12.2693L2.73168 14.0488H3.90241L3.91802 12.2927C3.92487 11.9344 3.99079 11.5797 4.11315 11.2429C4.31106 10.678 4.39252 10.0789 4.35261 9.48161C4.31271 8.88436 4.15226 8.30137 3.88095 7.7678L3.70729 7.44976C3.35055 6.752 3.25837 5.94872 3.44778 5.18829L3.76583 3.9161C3.85515 3.56598 3.90102 3.2062 3.90241 2.84488V2.32585H4.65949L3.31705 0L1.97461 2.32585H2.73168V2.84488Z" fill="white"/>
<path d="M7.4143 2.84488C7.41345 3.10803 7.38069 3.3701 7.31674 3.62537L6.99869 4.89561C6.74118 5.93076 6.8659 7.02407 7.34991 7.97463L7.51186 8.28878C7.71106 8.68067 7.82879 9.10886 7.85797 9.5475C7.88714 9.98615 7.82715 10.4262 7.68162 10.841C7.51932 11.2999 7.43427 11.7825 7.42991 12.2693L7.4143 14.0488H8.58503L8.60064 12.2927C8.60748 11.9344 8.67341 11.5797 8.79576 11.2429C8.99368 10.678 9.07514 10.0789 9.03523 9.48161C8.99532 8.88436 8.83488 8.30137 8.56357 7.7678L8.38991 7.44976C8.03316 6.752 7.94098 5.94872 8.1304 5.18829L8.44845 3.9161C8.53777 3.56598 8.58364 3.2062 8.58503 2.84488V2.32585H9.3421L7.99967 0L6.65723 2.32585H7.4143V2.84488Z" fill="white"/>
<path d="M12.0969 2.84488C12.0961 3.10803 12.0633 3.3701 11.9994 3.62537L11.6813 4.89561C11.4238 5.93076 11.5485 7.02407 12.0325 7.97463L12.1945 8.28878C12.3937 8.68067 12.5114 9.10886 12.5406 9.5475C12.5698 9.98615 12.5098 10.4262 12.3642 10.841C12.2019 11.2999 12.1169 11.7825 12.1125 12.2693L12.0969 14.0488H13.2676L13.2833 12.2927C13.2901 11.9344 13.356 11.5797 13.4784 11.2429C13.6763 10.678 13.7578 10.0789 13.7178 9.48161C13.6779 8.88436 13.5175 8.30137 13.2462 7.7678L13.0725 7.44976C12.7158 6.752 12.6236 5.94872 12.813 5.18829L13.1311 3.9161C13.2204 3.56598 13.2663 3.2062 13.2676 2.84488V2.32585H14.0247L12.6823 0L11.3398 2.32585H12.0969V2.84488Z" fill="white"/>
</svg>
