<svg width="10" height="16" viewBox="0 0 10 16" fill="none" xmlns="http://www.w3.org/2000/svg">
<path d="M7.73396 16.0001H1.28781C0.844152 16.0001 0.484375 15.6358 0.484375 15.1907V5.99445C0.484375 5.5475 0.846016 5.18506 1.28781 5.18506H7.73396C8.17763 5.18506 8.5374 5.54938 8.5374 5.99445V15.1907C8.5374 15.6358 8.17763 16.0001 7.73396 16.0001ZM1.28781 5.74656C1.1536 5.74656 1.04361 5.85736 1.04361 5.99257V15.1888C1.04361 15.324 1.1536 15.4348 1.28781 15.4348H7.73396C7.86818 15.4348 7.97816 15.324 7.97816 15.1888V5.99445C7.97816 5.85924 7.86818 5.74844 7.73396 5.74844H1.28781V5.74656Z" fill="white"/>
<path d="M8.62718 2.28169C7.52734 1.17371 6.06587 0.563381 4.51119 0.563381C2.9565 0.563381 1.49503 1.17371 0.395195 2.28169L0 1.88357C0.609569 1.26948 1.3198 0.794367 2.11019 0.471362C2.87448 0.157746 3.68351 0 4.51119 0C5.33886 0 6.14789 0.157746 6.91218 0.471362C7.70444 0.794367 8.41467 1.26948 9.02237 1.88357L8.62718 2.28169Z" fill="white"/>
<path d="M6.48156 3.57953C5.39477 2.4847 3.62758 2.4847 2.54266 3.57953L2.14746 3.18141C3.45235 1.86686 5.57373 1.86686 6.87861 3.18141L6.48156 3.57953Z" fill="white"/>
<path d="M4.51189 10.0974C3.65626 10.0974 2.96094 9.39695 2.96094 8.53498C2.96094 7.673 3.65626 6.97253 4.51189 6.97253C5.36753 6.97253 6.06284 7.673 6.06284 8.53498C6.06284 9.39695 5.36753 10.0974 4.51189 10.0974ZM4.51189 7.53404C3.96384 7.53404 3.52018 7.98286 3.52018 8.5331C3.52018 9.08521 3.9657 9.53216 4.51189 9.53216C5.05994 9.53216 5.50361 9.08333 5.50361 8.5331C5.50361 7.98286 5.05994 7.53404 4.51189 7.53404Z" fill="white"/>
</svg>
