<svg width="26" height="23" viewBox="0 0 26 23" fill="none" xmlns="http://www.w3.org/2000/svg">
<path fill-rule="evenodd" clip-rule="evenodd" d="M2.26068 0H23.7393C24.9854 0 26 1.01106 26 2.25512V17.3686C26 18.6116 24.9865 19.6237 23.7393 19.6237H2.26068C1.01462 19.6237 0 18.6126 0 17.3686V2.25512C0 1.01106 1.01355 0 2.26068 0ZM16.8617 21.4086L16.22 20.2084H9.77877L9.137 21.4086H16.8617ZM5.65792 23H20.3404C20.2965 22.7691 20.2065 22.5661 20.0704 22.4122C19.9001 22.2198 19.6472 22.1012 19.3098 22.1012L6.68845 22.1001C6.35095 22.1001 6.09812 22.2198 5.92776 22.4111C5.79169 22.5661 5.70185 22.7692 5.65792 23ZM13.2777 7.61184L12.8556 7.4932L12.6027 7.4216V7.08599L10.506 8.10238V14.5546L14.799 12.4726V10.0027L14.6608 10.0796L14.4326 10.2068L13.2851 9.06214L13.4126 8.83449L13.6269 8.45081C13.5519 8.31828 13.4855 8.18148 13.4276 8.04147C13.3676 7.89825 13.3184 7.75611 13.2777 7.61184ZM10.1589 7.50282L12.6028 6.31756V5.80028L12.8556 5.72867L13.2778 5.61004C13.3185 5.46575 13.3667 5.32253 13.4256 5.18146C13.4449 5.13657 13.4642 5.09168 13.4845 5.04679L10.1578 3.43402L5.96211 5.46897L10.1589 7.50282ZM5.04298 5.14724C4.91548 5.19854 4.82548 5.32251 4.82548 5.46894V12.6875C4.82548 12.8328 4.91548 12.9579 5.04298 13.0081L9.98552 15.4043L9.9898 15.4065H9.99088C10.0412 15.4342 10.098 15.4503 10.1591 15.4503C10.2169 15.4503 10.2716 15.4364 10.3187 15.4118L10.3273 15.4075L10.3327 15.4054L15.2966 12.9974C15.4198 12.9387 15.4916 12.8147 15.4927 12.6864H15.4937V10.0775C15.6234 10.1299 15.7541 10.1737 15.8859 10.2111L16.0048 10.6322L16.0766 10.8845H17.7019L17.7737 10.6322L17.8926 10.2111C18.0373 10.1705 18.1808 10.1214 18.3223 10.0626C18.4626 10.0049 18.5997 9.93753 18.7326 9.86379L19.1172 10.0775L19.3454 10.2047L20.4929 9.06007L20.3654 8.83242L20.1511 8.44874C20.2261 8.31621 20.2926 8.18048 20.3504 8.0394C20.4093 7.89832 20.4586 7.75509 20.4993 7.61082L20.9215 7.49219L21.1743 7.42058V5.80031L20.9215 5.7287L20.4993 5.61007C20.4586 5.46579 20.4093 5.32256 20.3504 5.18149C20.2926 5.04148 20.2251 4.90468 20.1511 4.77215L20.3654 4.38847L20.4929 4.16082L19.3454 3.01616L19.1172 3.14335L18.7326 3.3571C18.5997 3.28229 18.4626 3.21602 18.3223 3.15831C18.1808 3.09953 18.0372 3.05036 17.8926 3.00975L17.7737 2.58864L17.7019 2.33641H16.0766L16.0048 2.58864L15.8859 3.00975C15.7412 3.05036 15.5976 3.09953 15.4562 3.15831C15.3159 3.21602 15.1787 3.28336 15.0459 3.3571L14.6613 3.14335L14.433 3.01616L13.2856 4.16082L13.3016 4.18968L10.3133 2.74042L10.3112 2.73935H10.3101C10.218 2.69553 10.1076 2.69125 10.0091 2.73935L5.04298 5.14724ZM9.8119 14.5535V8.10246L5.51886 6.02048V12.4727L9.8119 14.5535ZM15.3038 9.21603C15.3167 9.22245 15.3295 9.22993 15.3413 9.23848C15.4645 9.31009 15.5899 9.37314 15.7174 9.42551C15.8835 9.49391 16.057 9.54735 16.2349 9.5869L16.4384 9.63072L16.4952 9.83165L16.5981 10.194H17.1766L17.2795 9.83165L17.3363 9.63072L17.5399 9.5869C17.7188 9.54842 17.8924 9.49391 18.0573 9.42551C18.2213 9.35818 18.3809 9.27482 18.5363 9.17542L18.7098 9.0632L18.8909 9.16366L19.222 9.34749L19.6323 8.93815L19.447 8.60791L19.3462 8.42728L19.4587 8.25414C19.5584 8.09917 19.642 7.93887 19.7105 7.7764C19.7791 7.61074 19.8327 7.43759 19.8723 7.26018L19.9162 7.05712L20.1166 7.00047L20.4798 6.89787V6.31966L20.1166 6.21706L19.9162 6.16041L19.8723 5.95734C19.8337 5.77886 19.7791 5.6057 19.7105 5.44113C19.643 5.27761 19.5595 5.11836 19.4587 4.96339L19.3462 4.79024L19.447 4.60962L19.6323 4.27938L19.222 3.87004L18.8909 4.05387L18.7098 4.15433L18.5363 4.04211C18.3809 3.94271 18.2202 3.85935 18.0573 3.79095C17.8913 3.72255 17.7177 3.66911 17.5399 3.62956L17.3363 3.58574L17.2795 3.38588L17.1766 3.02357H16.5981L16.4952 3.38588L16.4384 3.58574L16.2359 3.63384C16.057 3.67231 15.8834 3.72682 15.7185 3.79522C15.5545 3.86255 15.3949 3.94592 15.2395 4.04638L15.066 4.15861L14.8849 4.05814L14.5538 3.87431L14.1435 4.28365L14.3278 4.61389L14.4285 4.79452L14.3171 4.96766C14.2174 5.12263 14.1339 5.28294 14.0653 5.4454C13.9967 5.61106 13.9431 5.78421 13.9035 5.96162L13.8596 6.16468L13.6592 6.22133L13.296 6.32393V6.90214L13.6592 7.00475L13.8596 7.06139L13.9035 7.26446C13.9421 7.44294 13.9956 7.6161 14.0653 7.78067C14.1328 7.9442 14.2163 8.10344 14.3171 8.25842L14.4285 8.43156L14.3278 8.61218L14.1435 8.94242L14.5538 9.35177L14.8849 9.16794L15.066 9.06747L15.2395 9.17969C15.2599 9.18931 15.2824 9.20321 15.3038 9.21603ZM17.4831 5.58446V5.58339L17.482 5.58232L17.4488 5.56308C17.1734 5.41666 16.8627 5.38887 16.5799 5.46475C16.2863 5.54278 16.0227 5.73302 15.8588 6.01517L15.8577 6.01624C15.6938 6.29947 15.6606 6.62222 15.7399 6.91615C15.8192 7.20899 16.0099 7.473 16.2938 7.63651V7.63757C16.5777 7.8011 16.9013 7.83316 17.1959 7.75514C17.4873 7.67712 17.7498 7.49008 17.9138 7.21113L17.9363 7.16731L17.9416 7.16196C18.0852 6.88943 18.112 6.58268 18.037 6.30268C17.9588 6.00984 17.7681 5.74693 17.4852 5.58339L17.4831 5.58446ZM17.827 4.98594C17.377 4.7273 16.8659 4.67494 16.402 4.79891C15.937 4.92289 15.5203 5.22429 15.2599 5.67316L15.2588 5.67423L15.2449 5.69881L15.2438 5.70202C14.9985 6.1445 14.9502 6.64361 15.0713 7.09678C15.1956 7.56063 15.4977 7.97637 15.9477 8.23611L15.9756 8.25214L15.9809 8.25428C16.4234 8.49796 16.9227 8.54605 17.3759 8.42421C17.8237 8.30451 18.2277 8.01914 18.4891 7.59592L18.4912 7.59379L18.517 7.5489C18.7762 7.10002 18.8298 6.58914 18.7055 6.12636C18.5855 5.67748 18.2984 5.27348 17.873 5.0127L17.8687 5.00843L17.828 4.98492L17.827 4.98594ZM2.54228 1.94196C2.40835 1.94196 2.28621 1.99647 2.19729 2.08518C2.10836 2.17282 2.05372 2.29573 2.05372 2.42932V15.3583C2.05372 15.4919 2.10836 15.6138 2.19729 15.7025C2.28622 15.7912 2.40836 15.8457 2.54228 15.8457H23.4562C23.5901 15.8457 23.7122 15.7912 23.8012 15.7025C23.8901 15.6137 23.9447 15.4919 23.9447 15.3583V2.42932C23.9447 2.29573 23.8901 2.17389 23.8012 2.08518C23.7122 1.99647 23.5901 1.94196 23.4562 1.94196H2.54228ZM1.70764 1.59569C1.49336 1.80944 1.36051 2.10443 1.36051 2.42827V15.3573C1.36051 15.6822 1.49337 15.9771 1.70764 16.1898C1.92193 16.4036 2.21657 16.5351 2.54228 16.5351H23.4562C23.7819 16.5351 24.0776 16.4025 24.2908 16.1898C24.5051 15.9761 24.6369 15.6822 24.6369 15.3573L24.638 2.42937C24.638 2.10446 24.5051 1.80948 24.2919 1.59678C24.0776 1.38303 23.7819 1.25051 23.4573 1.25051H2.54225C2.21655 1.25051 1.92087 1.38301 1.70764 1.59569Z" fill="white"/>
</svg>
