<svg width="26" height="26" viewBox="0 0 26 26" fill="none" xmlns="http://www.w3.org/2000/svg">
<path d="M14.1112 15.8556H13.2334C13.1519 15.5852 13.0408 15.326 12.9112 15.0741L13.5297 14.4556C13.6741 14.3111 13.6741 14.0741 13.5297 13.9296L12.0704 12.4704C11.926 12.326 11.689 12.326 11.5445 12.4704L10.926 13.0889C10.6741 12.9593 10.4149 12.8482 10.1445 12.7667V11.8889C10.1445 11.6852 9.97783 11.5186 9.77412 11.5186H7.70743C7.50373 11.5186 7.33706 11.6852 7.33706 11.8889V12.7667C7.0667 12.8482 6.80742 12.9593 6.55557 13.0889L5.93704 12.4704C5.7926 12.326 5.55555 12.326 5.4111 12.4704L3.95185 13.9296C3.8074 14.0741 3.8074 14.3111 3.95185 14.4556L4.57038 15.0741C4.44075 15.326 4.32964 15.5852 4.24815 15.8556H3.37037C3.16667 15.8556 3 16.0223 3 16.226V18.2926C3 18.4963 3.16667 18.663 3.37037 18.663H4.24815C4.32963 18.9334 4.44074 19.1926 4.57038 19.4445L3.95185 20.063C3.8074 20.2075 3.8074 20.4445 3.95185 20.5889L5.4111 22.0482C5.48518 22.1223 5.57777 22.1556 5.67407 22.1556C5.77038 22.1556 5.86296 22.1223 5.93704 22.0482L6.55557 21.4297C6.80742 21.5593 7.06667 21.6704 7.33706 21.7519V22.6297C7.33706 22.8334 7.50373 23 7.70743 23H9.77412C9.97783 23 10.1445 22.8334 10.1445 22.6297V21.7519C10.4149 21.6704 10.6741 21.5593 10.926 21.4297L11.5445 22.0482C11.6186 22.1223 11.7149 22.1556 11.8075 22.1556C11.9001 22.1556 11.9964 22.1223 12.0704 22.0482L13.5297 20.5889C13.6741 20.4445 13.6741 20.2075 13.5297 20.063L12.9112 19.4445C13.0408 19.1926 13.1519 18.9334 13.2334 18.663H14.1112C14.3149 18.663 14.4816 18.4963 14.4816 18.2926V16.226C14.4816 16.0223 14.3149 15.8556 14.1112 15.8556ZM10.5594 17.2593C10.5594 18.263 9.74459 19.0778 8.74087 19.0778C7.73716 19.0778 6.92234 18.263 6.92234 17.2593C6.92234 16.2556 7.73716 15.4408 8.74087 15.4408C9.74459 15.4408 10.5594 16.2556 10.5594 17.2593Z" fill="#06B211"/>
<path d="M22.6296 13.1779H22.0593C22.0111 13.026 21.9482 12.8816 21.8778 12.7408L22.2815 12.3371C22.3519 12.2668 22.3889 12.1742 22.3889 12.0742C22.3889 11.9742 22.3519 11.8816 22.2815 11.8149L21.2222 10.7556C21.0778 10.6112 20.8444 10.6112 20.7 10.7556L20.2963 11.1593C20.1556 11.0889 20.0111 11.026 19.8592 10.9778V10.4075C19.8592 10.2038 19.6926 10.0371 19.4889 10.0371H17.9926C17.7889 10.0371 17.6222 10.2038 17.6222 10.4075V10.9778C17.4704 11.026 17.3259 11.0889 17.1852 11.1593L16.7815 10.7556C16.637 10.6112 16.4037 10.6112 16.2592 10.7556L15.2 11.8149C15.1296 11.8816 15.0926 11.9778 15.0926 12.0742C15.0926 12.1705 15.1296 12.2667 15.2 12.3371L15.6037 12.7408C15.5333 12.8816 15.4703 13.026 15.4222 13.1779H14.8518C14.6481 13.1779 14.4814 13.3445 14.4814 13.5482V15.0445C14.4814 15.2482 14.6481 15.4149 14.8518 15.4149H15.4222C15.4703 15.5668 15.5333 15.7112 15.6037 15.8519L15.2 16.2556C15.1296 16.326 15.0926 16.4186 15.0926 16.5186C15.0926 16.6186 15.1296 16.7112 15.2 16.7779L16.2592 17.8372C16.3296 17.9075 16.4259 17.9446 16.5185 17.9446C16.6111 17.9446 16.7074 17.9075 16.7815 17.8372L17.1852 17.4335C17.3259 17.5038 17.4704 17.5668 17.6222 17.6149V18.1853C17.6222 18.389 17.7889 18.5557 17.9926 18.5557H19.4889C19.6926 18.5557 19.8593 18.389 19.8593 18.1853V17.6149C20.0111 17.5668 20.1556 17.5038 20.2963 17.4335L20.7 17.8372C20.7741 17.9075 20.8667 17.9446 20.963 17.9446C21.0593 17.9446 21.1519 17.9075 21.2223 17.8372L22.2815 16.7779C22.3519 16.7112 22.3889 16.6149 22.3889 16.5186C22.3889 16.4223 22.3519 16.326 22.2815 16.2556L21.8778 15.8519C21.9482 15.7112 22.0112 15.5668 22.0593 15.4149H22.6297C22.8334 15.4149 23.0001 15.2482 23.0001 15.0445V13.5482C23.0001 13.3445 22.8333 13.1779 22.6296 13.1779ZM19.6667 14.2964C19.6667 14.8075 19.2518 15.2223 18.7407 15.2223C18.2296 15.2223 17.8148 14.8075 17.8148 14.2964C17.8148 13.7853 18.2296 13.3705 18.7407 13.3705C19.2518 13.3705 19.6667 13.7853 19.6667 14.2964Z" fill="#06B211"/>
<path d="M8.18575 8.37782H8.75612C8.80426 8.52596 8.86723 8.67411 8.9376 8.81486L8.5339 9.21856C8.38945 9.36301 8.38945 9.59635 8.5339 9.74078L9.59317 10.8C9.66354 10.8704 9.75984 10.9075 9.85244 10.9075C9.94505 10.9075 10.045 10.8704 10.1154 10.8L10.5191 10.3963C10.6599 10.4667 10.808 10.5297 10.9562 10.5778V11.1482C10.9562 11.3519 11.1228 11.5186 11.3265 11.5186H12.8228C13.0265 11.5186 13.1932 11.3519 13.1932 11.1482V10.5778C13.3414 10.5297 13.4895 10.4667 13.6303 10.3963L14.034 10.8C14.108 10.8704 14.2006 10.9075 14.2969 10.9075C14.3932 10.9075 14.4858 10.8704 14.5562 10.8L15.6155 9.74078C15.6859 9.67411 15.7229 9.57781 15.7229 9.48151C15.7229 9.3852 15.6858 9.28891 15.6155 9.21854L15.2118 8.81484C15.2822 8.6741 15.3451 8.52966 15.3933 8.37779H15.9636C16.1673 8.37779 16.334 8.21113 16.334 8.00742V6.51113C16.334 6.30743 16.1673 6.14076 15.9636 6.14076H15.3933C15.3451 5.98891 15.2821 5.84447 15.2118 5.70371L15.6155 5.30002C15.6859 5.22965 15.7229 5.13705 15.7229 5.03705C15.7229 4.93704 15.6858 4.84446 15.6155 4.77778L14.5562 3.71851C14.4118 3.57406 14.1784 3.57406 14.034 3.71851L13.6303 4.12221C13.4895 4.05184 13.3414 3.98887 13.1932 3.94073V3.37037C13.1932 3.16666 13.0266 3 12.8229 3H11.3266C11.1229 3 10.9562 3.16666 10.9562 3.37037V3.94073C10.808 3.98887 10.6599 4.05184 10.5191 4.12221L10.1154 3.71851C9.97099 3.57406 9.73765 3.57406 9.59322 3.71851L8.53394 4.77778C8.3895 4.92222 8.3895 5.15557 8.53394 5.29999L8.93764 5.70369C8.86727 5.84443 8.80431 5.99259 8.75616 6.14074H8.1858C7.9821 6.14074 7.81543 6.3074 7.81543 6.51111V8.0074C7.81543 8.2111 7.98205 8.37782 8.18575 8.37782ZM11.1487 7.25929C11.1487 6.74819 11.5635 6.33338 12.0746 6.33338C12.5857 6.33338 13.0006 6.74819 13.0006 7.25929C13.0006 7.77039 12.5857 8.1852 12.0746 8.1852C11.5635 8.1852 11.1487 7.77039 11.1487 7.25929Z" fill="#06B211"/>
</svg>
