<svg width="20" height="20" viewBox="0 0 20 20" fill="none" xmlns="http://www.w3.org/2000/svg">
<path d="M10.7834 18H9.16898C9.09671 18 9.02675 17.9745 8.97143 17.9278C8.91611 17.8812 8.87899 17.8164 8.86662 17.745L8.61487 16.2954C7.86289 16.1335 7.14659 15.8356 6.50099 15.4163L5.30034 16.2635C5.24126 16.3052 5.16941 16.3246 5.09743 16.3184C5.02546 16.3122 4.95799 16.2807 4.9069 16.2294L3.76531 15.0844C3.71423 15.0332 3.68282 14.9655 3.67662 14.8933C3.67041 14.8211 3.6898 14.7491 3.73137 14.6898L4.57501 13.4854C4.15736 12.8378 3.86071 12.1195 3.69954 11.3654L2.25424 11.1127C2.18307 11.1003 2.11854 11.0631 2.07203 11.0076C2.02553 10.9522 2.00002 10.8821 2 10.8096V9.19038C1.99997 9.1179 2.02546 9.04772 2.07197 8.99224C2.11849 8.93676 2.18304 8.89953 2.25424 8.88712L3.69954 8.63462C3.86098 7.8804 4.15796 7.16195 4.57596 6.51442L3.73233 5.31C3.69076 5.25074 3.67137 5.17868 3.67757 5.10649C3.68378 5.0343 3.71519 4.96663 3.76627 4.91539L4.90786 3.77038C4.95895 3.71916 5.02642 3.68766 5.09839 3.68143C5.17037 3.6752 5.24222 3.69465 5.3013 3.73635L6.50214 4.5825C7.14747 4.16378 7.86337 3.86631 8.61487 3.70462L8.86643 2.255C8.87881 2.18355 8.91596 2.11878 8.97131 2.07213C9.02667 2.02547 9.09668 1.99993 9.16898 2H10.7834C10.8557 1.99997 10.9256 2.02554 10.9809 2.07219C11.0363 2.11884 11.0734 2.18358 11.0858 2.255L11.3375 3.70462C12.0895 3.86654 12.8058 4.1644 13.4514 4.58365L14.6522 3.7375C14.7113 3.6958 14.7832 3.67636 14.8551 3.68258C14.9271 3.68881 14.9946 3.72031 15.0457 3.77154L16.1873 4.91654C16.2383 4.96778 16.2697 5.03545 16.276 5.10764C16.2822 5.17983 16.2628 5.2519 16.2212 5.31115L15.3766 6.51558C15.7944 7.16277 16.0913 7.88081 16.2528 8.63462L17.6981 8.88692C17.7694 8.89934 17.834 8.9366 17.8805 8.99212C17.927 9.04765 17.9525 9.11786 17.9524 9.19038V10.8096C17.9524 10.8821 17.9269 10.9522 17.8803 11.0076C17.8338 11.0631 17.7693 11.1003 17.6981 11.1127L16.2528 11.3654C16.0914 12.1196 15.7944 12.838 15.3764 13.4856L16.221 14.69C16.2626 14.7493 16.282 14.8213 16.2758 14.8935C16.2696 14.9657 16.2381 15.0334 16.1871 15.0846L15.0455 16.2296C14.9944 16.2808 14.9269 16.3123 14.8549 16.3186C14.783 16.3248 14.7111 16.3054 14.652 16.2637L13.4512 15.4165C12.8056 15.8357 12.0894 16.1335 11.3375 16.2954L11.086 17.745C11.0736 17.8165 11.0364 17.8812 10.9811 17.9279C10.9257 17.9745 10.8557 18.0001 10.7834 18ZM9.42687 17.3846H10.5255L10.7688 15.9808C10.7796 15.9187 10.8092 15.8614 10.8535 15.8167C10.8978 15.772 10.9547 15.742 11.0165 15.7308C11.8302 15.584 12.6025 15.2625 13.2807 14.7885C13.3324 14.7525 13.3938 14.7334 13.4567 14.7337C13.5195 14.7339 13.5808 14.7535 13.6322 14.7898L14.7939 15.6096L15.5708 14.8304L14.7535 13.6652C14.7173 13.6137 14.6977 13.5522 14.6975 13.4892C14.6972 13.4261 14.7163 13.3645 14.7521 13.3127C15.2248 12.6325 15.5453 11.8578 15.6916 11.0417C15.7028 10.9797 15.7327 10.9226 15.7773 10.8782C15.8219 10.8337 15.879 10.8041 15.9409 10.7933L17.3406 10.5492V9.44731L15.9409 9.20327C15.879 9.19245 15.8219 9.16282 15.7773 9.11838C15.7327 9.07394 15.7028 9.01684 15.6916 8.95481C15.5453 8.13876 15.2248 7.36409 14.7521 6.68385C14.7163 6.63203 14.6972 6.57043 14.6975 6.50738C14.6977 6.44434 14.7173 6.38289 14.7535 6.33135L15.5708 5.16615L14.7939 4.38692L13.6322 5.20673C13.5808 5.24304 13.5195 5.26265 13.4567 5.26289C13.3938 5.26313 13.3324 5.24399 13.2807 5.20808C12.6025 4.734 11.8302 4.41255 11.0165 4.26577C10.9547 4.25457 10.8978 4.22458 10.8535 4.17987C10.8092 4.13516 10.7796 4.07787 10.7688 4.01577L10.5255 2.61538H9.42687L9.18356 4.01923C9.17277 4.08134 9.14323 4.13862 9.09892 4.18333C9.05462 4.22805 8.99769 4.25803 8.93583 4.26923C8.12222 4.41602 7.34985 4.73746 6.67163 5.21154C6.61997 5.24746 6.55855 5.26659 6.49569 5.26635C6.43284 5.26611 6.37157 5.2465 6.32018 5.21019L5.15846 4.39038L4.38154 5.16962L5.19891 6.33481C5.23512 6.38635 5.25466 6.4478 5.2549 6.51085C5.25514 6.57389 5.23606 6.63549 5.20025 6.68731C4.72759 7.36755 4.4071 8.14222 4.26075 8.95827C4.24958 9.02031 4.21969 9.07741 4.17511 9.12184C4.13053 9.16628 4.07342 9.19591 4.0115 9.20673L2.61355 9.44904V10.551L4.01322 10.795C4.07514 10.8058 4.13225 10.8355 4.17683 10.8799C4.22141 10.9243 4.25131 10.9814 4.26248 11.0435C4.40883 11.8595 4.72931 12.6342 5.20198 13.3144C5.23779 13.3662 5.25687 13.4278 5.25663 13.4909C5.25639 13.5539 5.23684 13.6154 5.20064 13.6669L4.38327 14.8321L5.16018 15.6113L6.32191 14.7915C6.37329 14.7552 6.43456 14.7356 6.49742 14.7354C6.56028 14.7351 6.6217 14.7543 6.67336 14.7902C7.35157 15.2643 8.12394 15.5857 8.93756 15.7325C8.99941 15.7437 9.05634 15.7737 9.10065 15.8184C9.14495 15.8631 9.1745 15.9204 9.18528 15.9825L9.42687 17.3846Z" fill="#06B211"/>
<path d="M9.97578 15.1805C8.78084 15.1805 7.62286 14.7649 6.69916 14.0046C5.77545 13.2443 5.14317 12.1862 4.91005 11.0107C4.67692 9.83527 4.85738 8.61508 5.42067 7.55808C5.98395 6.50109 6.89522 5.67269 7.99921 5.21404C9.10319 4.75539 10.3316 4.69486 11.4751 5.04277C12.6186 5.39067 13.6064 6.12549 14.2703 7.12201C14.9341 8.11853 15.233 9.3151 15.1159 10.5078C14.9987 11.7006 14.4729 12.8157 13.628 13.6632C13.1495 14.1457 12.5803 14.5283 11.9534 14.7887C11.3265 15.0492 10.6543 15.1823 9.97578 15.1805ZM9.97578 5.43509C7.46616 5.43509 5.42437 7.48297 5.42437 10.0001C5.42437 12.5172 7.46616 14.5651 9.97578 14.5651C12.4854 14.5651 14.5272 12.5172 14.5272 10.0001C14.5272 7.48297 12.4854 5.43509 9.97578 5.43509Z" fill="#06B211"/>
<path d="M9.97645 6.94913C9.89509 6.94913 9.81706 6.91671 9.75953 6.859C9.702 6.8013 9.66968 6.72304 9.66968 6.64143V5.12739C9.66968 5.04579 9.702 4.96753 9.75953 4.90982C9.81706 4.85212 9.89509 4.8197 9.97645 4.8197C10.0578 4.8197 10.1358 4.85212 10.1934 4.90982C10.2509 4.96753 10.2832 5.04579 10.2832 5.12739V6.64143C10.2832 6.72304 10.2509 6.8013 10.1934 6.859C10.1358 6.91671 10.0578 6.94913 9.97645 6.94913Z" fill="#06B211"/>
<path d="M9.97645 15.1803C9.89509 15.1803 9.81706 15.1479 9.75953 15.0902C9.702 15.0325 9.66968 14.9542 9.66968 14.8726V13.3586C9.66968 13.277 9.702 13.1987 9.75953 13.141C9.81706 13.0833 9.89509 13.0509 9.97645 13.0509C10.0578 13.0509 10.1358 13.0833 10.1934 13.141C10.2509 13.1987 10.2832 13.277 10.2832 13.3586V14.8726C10.2832 14.9542 10.2509 15.0325 10.1934 15.0902C10.1358 15.1479 10.0578 15.1803 9.97645 15.1803Z" fill="#06B211"/>
<path d="M12.3444 7.93255C12.2837 7.93256 12.2244 7.91452 12.1739 7.88069C12.1235 7.84687 12.0841 7.7988 12.0609 7.74255C12.0377 7.68631 12.0317 7.62442 12.0435 7.56472C12.0554 7.50502 12.0846 7.45019 12.1276 7.40717L13.195 6.33659C13.2525 6.27888 13.3305 6.24646 13.4119 6.24646C13.4933 6.24646 13.5713 6.27888 13.6289 6.33659C13.6864 6.3943 13.7187 6.47257 13.7187 6.55419C13.7187 6.6358 13.6864 6.71407 13.6289 6.77178L12.5615 7.84236C12.533 7.87096 12.4991 7.89365 12.4619 7.90912C12.4247 7.9246 12.3847 7.93256 12.3444 7.93255Z" fill="#06B211"/>
<path d="M6.54071 13.7531C6.48002 13.7531 6.42069 13.7351 6.37022 13.7013C6.31976 13.6674 6.28043 13.6194 6.25722 13.5631C6.234 13.5069 6.22794 13.445 6.2398 13.3853C6.25167 13.3256 6.28092 13.2707 6.32386 13.2277L7.39125 12.1571C7.41974 12.1286 7.45356 12.1059 7.49079 12.0904C7.52801 12.075 7.56791 12.067 7.6082 12.067C7.64849 12.067 7.68839 12.075 7.72561 12.0904C7.76284 12.1059 7.79666 12.1286 7.82515 12.1571C7.85364 12.1857 7.87624 12.2196 7.89166 12.257C7.90708 12.2943 7.91501 12.3343 7.91501 12.3747C7.91501 12.4152 7.90708 12.4552 7.89166 12.4925C7.87624 12.5298 7.85364 12.5638 7.82515 12.5923L6.75776 13.6629C6.72926 13.6915 6.69543 13.7142 6.65818 13.7297C6.62094 13.7452 6.58102 13.7531 6.54071 13.7531Z" fill="#06B211"/>
<path d="M14.8341 10.3074H13.3246C13.2432 10.3074 13.1652 10.275 13.1077 10.2173C13.0501 10.1596 13.0178 10.0813 13.0178 9.99971C13.0178 9.9181 13.0501 9.83984 13.1077 9.78214C13.1652 9.72443 13.2432 9.69202 13.3246 9.69202H14.8341C14.9155 9.69202 14.9935 9.72443 15.0511 9.78214C15.1086 9.83984 15.1409 9.9181 15.1409 9.99971C15.1409 10.0813 15.1086 10.1596 15.0511 10.2173C14.9935 10.275 14.9155 10.3074 14.8341 10.3074Z" fill="#06B211"/>
<path d="M6.6271 10.3074H5.11757C5.03621 10.3074 4.95818 10.275 4.90064 10.2173C4.84311 10.1596 4.81079 10.0813 4.81079 9.99971C4.81079 9.9181 4.84311 9.83984 4.90064 9.78214C4.95818 9.72443 5.03621 9.69202 5.11757 9.69202H6.6271C6.70846 9.69202 6.78649 9.72443 6.84402 9.78214C6.90156 9.83984 6.93388 9.9181 6.93388 9.99971C6.93388 10.0813 6.90156 10.1596 6.84402 10.2173C6.78649 10.275 6.70846 10.3074 6.6271 10.3074Z" fill="#06B211"/>
<path d="M13.4119 13.7531C13.3716 13.7531 13.3317 13.7452 13.2944 13.7297C13.2572 13.7142 13.2233 13.6915 13.1949 13.6629L12.1275 12.5923C12.099 12.5638 12.0764 12.5298 12.061 12.4925C12.0455 12.4552 12.0376 12.4152 12.0376 12.3747C12.0376 12.3343 12.0455 12.2943 12.061 12.257C12.0764 12.2196 12.099 12.1857 12.1275 12.1571C12.156 12.1286 12.1898 12.1059 12.227 12.0904C12.2642 12.075 12.3041 12.067 12.3444 12.067C12.3847 12.067 12.4246 12.075 12.4618 12.0904C12.499 12.1059 12.5329 12.1286 12.5614 12.1571L13.6287 13.2277C13.6717 13.2707 13.7009 13.3256 13.7128 13.3853C13.7247 13.445 13.7186 13.5069 13.6954 13.5631C13.6722 13.6194 13.6329 13.6674 13.5824 13.7013C13.5319 13.7351 13.4726 13.7531 13.4119 13.7531Z" fill="#06B211"/>
<path d="M7.60819 7.93255C7.56787 7.93256 7.52796 7.9246 7.49071 7.90912C7.45347 7.89365 7.41964 7.87096 7.39114 7.84236L6.32375 6.77178C6.26621 6.71407 6.23389 6.6358 6.23389 6.55419C6.23389 6.47257 6.26621 6.3943 6.32375 6.33659C6.38129 6.27888 6.45933 6.24646 6.5407 6.24646C6.62207 6.24646 6.70011 6.27888 6.75765 6.33659L7.82504 7.40717C7.86798 7.45019 7.89723 7.50502 7.90909 7.56472C7.92096 7.62442 7.9149 7.68631 7.89168 7.74255C7.86847 7.7988 7.82914 7.84687 7.77868 7.88069C7.72821 7.91452 7.66888 7.93256 7.60819 7.93255Z" fill="#06B211"/>
<path d="M9.32217 11.4038C9.22898 11.404 9.13666 11.3857 9.05057 11.3499C8.96447 11.3141 8.88631 11.2616 8.82059 11.1953L8.06324 10.4357C8.00562 10.378 7.97322 10.2997 7.97314 10.2181C7.97307 10.1364 8.00534 10.0581 8.06286 10.0003C8.12037 9.94251 8.19841 9.91 8.27982 9.90993C8.36123 9.90986 8.43933 9.94223 8.49694 9.99991L9.2543 10.7595C9.26317 10.7685 9.27375 10.7756 9.28541 10.7804C9.29706 10.7853 9.30956 10.7877 9.32217 10.7876C9.33477 10.7876 9.34725 10.7852 9.3589 10.7803C9.37054 10.7755 9.38113 10.7684 9.39005 10.7595L11.4562 8.68703C11.4845 8.65777 11.5184 8.63446 11.5558 8.61845C11.5932 8.60244 11.6334 8.59405 11.674 8.59376C11.7147 8.59347 11.755 8.60129 11.7926 8.61677C11.8303 8.63225 11.8644 8.65507 11.8932 8.68392C11.9219 8.71276 11.9447 8.74706 11.9601 8.7848C11.9755 8.82254 11.9833 8.86297 11.983 8.90376C11.9827 8.94454 11.9743 8.98486 11.9583 9.02236C11.9423 9.05987 11.9191 9.09381 11.8899 9.12222L9.82318 11.1943C9.75761 11.2607 9.67958 11.3134 9.59358 11.3494C9.50759 11.3853 9.41534 11.4038 9.32217 11.4038Z" fill="#06B211"/>
</svg>
