<svg width="20" height="20" viewBox="0 0 20 20" fill="none" xmlns="http://www.w3.org/2000/svg">
<path d="M13.0358 18C12.9398 18 12.8456 17.9622 12.7773 17.8915C12.6756 17.7862 12.6536 17.6307 12.7222 17.5029C13.3898 16.261 13.5554 14.9304 13.2015 13.8754C12.8938 14.4078 12.4566 15.0292 11.7836 15.2985C11.6259 15.3616 11.4443 15.3068 11.3517 15.169C10.7688 14.2995 10.4208 13.3352 10.2489 12.0687C9.71376 13.1222 9.38593 14.1363 9.70488 14.9181C9.74979 15.0283 9.73212 15.1531 9.65824 15.2477C9.58437 15.3422 9.46412 15.3935 9.34249 15.3816C8.53003 15.3063 8.00558 14.8207 7.65198 14.2336C7.61242 15.4746 7.89955 16.537 8.51891 17.4564C8.60253 17.5805 8.59339 17.7425 8.49624 17.8571C8.39909 17.9718 8.23617 18.013 8.09342 17.9585C6.22844 17.2505 4.98636 16.2021 4.40183 14.8427C3.69454 13.198 3.91936 11.1358 5.08903 8.53821C5.14377 8.41662 5.26678 8.33666 5.40418 8.33342C5.54202 8.33051 5.66856 8.40407 5.72951 8.523C5.98346 9.01901 6.31301 9.30791 6.74902 9.41022C6.51877 6.99 7.66664 4.5938 10.2466 2.09995C10.3621 1.9885 10.5421 1.9678 10.6812 2.05025C10.8205 2.13261 10.883 2.29651 10.8321 2.44628C10.0429 4.77075 10.2911 6.29901 11.6702 7.49433C12.7285 6.62863 13.2276 5.84871 13.1543 5.17384C13.1371 5.0151 13.2367 4.86608 13.3937 4.81555C13.5509 4.76493 13.7233 4.8266 13.8083 4.9634C14.72 6.4295 14.6627 8.23469 14.4142 9.88446C14.9662 9.6416 15.3677 9.16861 15.6816 8.40764C15.7377 8.27159 15.8776 8.18673 16.0294 8.19355C16.1811 8.20177 16.3103 8.30251 16.3503 8.4438C17.3189 11.8637 17.8334 16.0372 13.1755 17.9722C13.1304 17.9909 13.0829 18 13.0358 18ZM13.2292 12.7623C13.3545 12.7623 13.4705 12.8264 13.5339 12.9308C14.1964 14.0227 14.2606 15.4973 13.7421 16.9372C16.1397 15.5834 16.8009 13.283 15.8975 9.49649C15.5298 10.0342 14.9647 10.5355 14.0434 10.7049C13.9298 10.7251 13.8128 10.6916 13.7303 10.6137C13.6477 10.5357 13.6099 10.4237 13.6291 10.3138C13.8591 8.99848 14.018 7.53904 13.6335 6.27466C13.3371 6.89218 12.7578 7.53098 11.8876 8.20385C11.7582 8.304 11.5741 8.30367 11.4449 8.20319C9.94607 7.03663 9.41645 5.57477 9.80177 3.5643C7.92516 5.68324 7.17218 7.71274 7.50285 9.74018C7.51889 9.83808 7.48975 9.93782 7.4232 10.0134C7.35665 10.0889 7.25925 10.1328 7.15649 10.1335C7.15029 10.1335 7.14408 10.1335 7.13787 10.1335C6.45929 10.1335 5.90484 9.88861 5.4822 9.40374C4.61613 11.5406 4.47665 13.2391 5.05412 14.582C5.46918 15.5471 6.24931 16.3169 7.42648 16.9177C6.91134 15.7349 6.80798 14.3747 7.109 12.7909C7.13856 12.6353 7.27537 12.5199 7.43924 12.5122C7.6019 12.5041 7.75077 12.6065 7.79585 12.7588C8.0823 13.7262 8.42452 14.2955 8.89174 14.5503C8.75795 13.382 9.42343 12.0334 10.1893 10.7302C10.2668 10.5984 10.4254 10.532 10.5778 10.5667C10.7306 10.6015 10.8412 10.7295 10.8492 10.8807C10.9329 12.4656 11.2126 13.5796 11.7738 14.5282C12.2241 14.2172 12.5356 13.6424 12.7729 13.2044C12.8256 13.1073 12.8745 13.017 12.9206 12.9372C12.9823 12.8304 13.0986 12.7636 13.2254 12.7623C13.2267 12.7623 13.2279 12.7623 13.2292 12.7623Z" fill="#F90000"/>
</svg>
