<svg width="26" height="26" viewBox="0 0 26 26" fill="none" xmlns="http://www.w3.org/2000/svg">
<path fill-rule="evenodd" clip-rule="evenodd" d="M15.7544 3C15.7544 3 14.521 5.12179 15.5896 7.29268C16.6589 9.46358 17.5964 11.1744 17.3819 12.9997C17.3819 12.9997 17.9246 10.0393 20.6712 9.26587C20.6712 9.26587 19.6517 11.19 20.2105 13.9042C20.7694 16.6178 19.5031 21.6839 14.3058 23C14.3058 23 18.9112 20.5493 15.6051 16.5687C15.6051 16.5687 15.5231 18.5264 13.8206 19.1098C13.8206 19.1098 16.5013 14.5458 12.5543 10.3022C12.5543 10.3022 13.4588 13.2465 10.4325 15.763C7.40614 18.2796 8.90315 22.3255 10.6463 22.8843C10.6463 22.8843 1.13962 18.6408 6.79751 9.89129C6.79751 9.89129 6.99522 11.8813 8.44248 12.6547C8.44248 12.6547 8.22862 4.1184 15.7537 3H15.7544Z" fill="#F90000"/>
</svg>
