<svg width="15" height="16" viewBox="0 0 15 16" fill="none" xmlns="http://www.w3.org/2000/svg">
<path d="M15 2.00033V1.00016C15 0.448471 14.5361 0 13.9655 0H1.0352C0.464571 0 0.000706076 0.448471 0.000706076 1.00016V2.00033C0.000706076 2.55134 0.464571 2.99981 1.0345 3.00049V4.75062H0.517592C0.231924 4.75062 0.000687949 4.97417 0.000687949 5.25037C0.000687949 5.52658 0.231906 5.75012 0.517592 5.75012H1.0345V7.50025H0.517592C0.231924 7.50025 0.000687949 7.72379 0.000687949 8C0.000687949 8.27621 0.231906 8.49975 0.517592 8.49975H1.0345V10.2499H0.517592C0.231924 10.2499 0.000687949 10.4734 0.000687949 10.7496C0.000687949 11.0258 0.231906 11.2494 0.517592 11.2494H1.0345V12.9995C0.463865 12.9995 0 13.448 0 13.9997V14.9998C0 15.5515 0.463865 16 1.0345 16H13.9648C14.5354 16 14.9993 15.5515 14.9993 14.9998V13.9997C14.9993 13.448 14.5354 12.9995 13.9648 12.9995V11.2494H14.4817C14.7674 11.2494 14.9986 11.0258 14.9986 10.7496C14.9986 10.4734 14.7674 10.2499 14.4817 10.2499H13.9648V8.49975H14.4817C14.7674 8.49975 14.9986 8.27621 14.9986 8C14.9986 7.72379 14.7674 7.50025 14.4817 7.50025H13.9648V5.75012H14.4817C14.7674 5.75012 14.9986 5.52658 14.9986 5.25037C14.9986 4.97417 14.7674 4.75062 14.4817 4.75062H13.9648V3.00049C14.5354 3.00049 14.9993 2.55202 14.9993 2.00033H15ZM1.03517 1.00016H13.9655V2.00033H1.03517V1.00016ZM13.9655 15.0012H1.03517V14.001H13.9655V15.0012ZM12.931 13.0008H2.06974V11.2507H12.931V13.0008ZM12.931 10.2505H2.06974V8.50034H12.931V10.2505ZM12.931 7.50085H2.06901V5.75072H12.931V7.50085ZM12.931 4.75052H2.06901V3.00039H12.931V4.75052Z" fill="white"/>
</svg>
