<svg width="20" height="20" viewBox="0 0 20 20" fill="none" xmlns="http://www.w3.org/2000/svg">
<path d="M10.5814 2.01362C10.4817 2.0373 10.3866 2.09021 10.3149 2.17233L3.13136 10.4315C2.98795 10.5966 2.96613 10.8374 3.04562 11.0151C3.12512 11.1935 3.31685 11.3349 3.53429 11.3349H8.79505V17.4868C8.79505 17.7063 8.94548 17.9005 9.12394 17.9692C9.3032 18.0379 9.54248 17.9921 9.6851 17.8271L16.8686 9.56705C17.012 9.40203 17.0339 9.16278 16.9544 8.98433C16.8749 8.80666 16.6831 8.66454 16.4657 8.66454H11.2049V2.51343C11.2049 2.29393 11.0545 2.09967 10.8761 2.03099C10.7864 1.99624 10.682 1.99072 10.5814 2.01441V2.01362ZM10.4661 3.12932V8.66451C10.4661 9.07352 10.8012 9.41306 11.2049 9.41306L16.0168 9.41385L9.53395 16.8694V11.335C9.53395 10.926 9.19882 10.5864 8.79511 10.5864H3.98327L10.4661 3.12932Z" fill="#FFF703"/>
</svg>
