<svg width="26" height="26" viewBox="0 0 26 26" fill="none" xmlns="http://www.w3.org/2000/svg">
<path d="M6.45816 14.4282H12.6173C12.6831 14.4282 12.748 14.4401 12.8074 14.463C12.8668 14.486 12.919 14.5193 12.9604 14.5607C13.0018 14.6021 13.0312 14.6505 13.0465 14.7022C13.0618 14.754 13.0626 14.8079 13.0489 14.86L10.9189 22.9095C10.9155 22.9175 10.9142 22.926 10.915 22.9345C10.9157 22.9429 10.9186 22.9512 10.9234 22.9587C10.9281 22.9663 10.9347 22.973 10.9427 22.9785C10.9508 22.9839 10.9601 22.988 10.9701 22.9905C10.9789 22.995 10.9889 22.998 10.9992 22.9993C11.0095 23.0006 11.0201 23.0001 11.0302 22.998C11.0403 22.9958 11.0498 22.992 11.0581 22.9868C11.0663 22.9816 11.0732 22.9751 11.0782 22.9677L20.91 12.1626C20.9605 12.1074 20.9911 12.042 20.9983 11.9735C21.0056 11.9051 20.9892 11.8364 20.9509 11.775C20.9127 11.7137 20.8542 11.6622 20.7819 11.6262C20.7096 11.5902 20.6264 11.5712 20.5415 11.5712H14.3824C14.3165 11.5713 14.2515 11.5594 14.1921 11.5364C14.1327 11.5135 14.0804 11.48 14.0391 11.4386C13.9977 11.3972 13.9683 11.3488 13.953 11.297C13.9377 11.2451 13.937 11.1912 13.9508 11.1391L16.0808 3.08964C16.0841 3.0816 16.0855 3.0731 16.0847 3.06464C16.0839 3.05618 16.0811 3.04792 16.0763 3.04037C16.0715 3.03281 16.065 3.02611 16.0569 3.02065C16.0489 3.01519 16.0396 3.01108 16.0296 3.00857C16.0158 3.00317 16.0008 3.00024 15.9855 3C15.9724 3.00052 15.9596 3.00367 15.9484 3.00915C15.9371 3.01463 15.9277 3.02229 15.921 3.03143L6.0897 13.8372C6.03929 13.8924 6.00881 13.9578 6.00164 14.0262C5.99447 14.0946 6.0109 14.1632 6.0491 14.2245C6.0873 14.2858 6.14577 14.3373 6.21799 14.3732C6.29021 14.4092 6.37335 14.4282 6.45816 14.4282Z" fill="#FFEF10"/>
</svg>
