<svg width="28" height="26" viewBox="0 0 28 26" fill="none" xmlns="http://www.w3.org/2000/svg">
<path d="M22.4 18.2C22.4 18.9732 21.7732 19.6 21 19.6C20.2268 19.6 19.6 18.9732 19.6 18.2V7C19.6 6.22679 20.2268 5.6 21 5.6C21.7732 5.6 22.4 6.22679 22.4 7V18.2Z" fill="white"/>
<path fill-rule="evenodd" clip-rule="evenodd" d="M4.2 25.2C1.88041 25.2 0 23.3197 0 21V4.2C0 1.88041 1.88041 0 4.2 0H23.8C26.1197 0 28 1.88041 28 4.2V21C28 23.3197 26.1197 25.2 23.8 25.2H4.2ZM2.8 21C2.8 21.7732 3.42681 22.4 4.2 22.4H23.8C24.5732 22.4 25.2 21.7732 25.2 21V4.2C25.2 3.42679 24.5732 2.8 23.8 2.8H4.2C3.42681 2.8 2.8 3.42679 2.8 4.2V21Z" fill="white"/>
</svg>
