<svg width="16" height="16" viewBox="0 0 16 16" fill="none" xmlns="http://www.w3.org/2000/svg">
<path d="M5.15728 7.51047C5.15728 6.59951 4.4188 5.86103 3.50784 5.86103C2.59688 5.86103 1.8584 6.59951 1.8584 7.51047C1.8584 8.42143 2.59688 9.15991 3.50784 9.15991C4.4188 9.15991 5.15728 8.42143 5.15728 7.51047Z" fill="white"/>
<path d="M9.85019 -0.0860806C9.50171 0.21593 9.2694 0.634098 9.24617 1.09873C9.22293 1.40074 9.2694 1.67952 9.38556 1.9583L5.90082 4.88548C5.27357 4.32792 4.43723 3.97944 3.5312 3.97944C1.57975 3.97944 0 5.55919 0 7.51064C0 9.4621 1.57975 11.0418 3.5312 11.0418C4.43723 11.0418 5.27357 10.6934 5.90082 10.1358L9.38556 13.063C9.2694 13.3185 9.22293 13.6205 9.24617 13.9226C9.29263 14.3872 9.50171 14.8054 9.85019 15.1074C10.5936 15.7346 11.6855 15.6185 12.3127 14.8983C12.5683 14.573 12.7309 14.2013 12.7309 13.7832C12.7309 13.7367 12.7309 13.6902 12.7309 13.6205C12.6844 13.1559 12.4754 12.7377 12.1269 12.4357C11.7784 12.1337 11.3138 11.9943 10.8491 12.0408C10.5471 12.064 10.2684 12.157 10.036 12.3196L6.5513 9.3924C6.80685 8.97423 6.9927 8.5096 7.0624 7.99851L11.6158 7.99851C11.8249 8.71868 12.4986 9.25301 13.2885 9.25301C14.241 9.25301 15.0308 8.46314 15.0308 7.51064C15.0308 6.55815 14.241 5.76828 13.2885 5.76828C12.4986 5.76828 11.8249 6.3026 11.6158 7.02278H7.01594C6.94624 6.51169 6.76039 6.04705 6.50484 5.62889L9.98958 2.70171C10.2219 2.86433 10.5007 2.95725 10.8027 2.98049C11.2673 3.02695 11.7087 2.88756 12.0804 2.58555C12.4289 2.28354 12.6612 1.86537 12.6844 1.40074C12.6844 1.35428 12.6844 1.30781 12.6844 1.23812C12.6844 0.81995 12.545 0.448244 12.2663 0.123002C11.6855 -0.597178 10.5936 -0.690102 9.85019 -0.0860806ZM0.952495 7.51064C0.952495 6.09352 2.11407 4.95517 3.50797 4.95517C4.92509 4.95517 6.06344 6.11675 6.06344 7.51064C6.06344 8.90454 4.90186 10.0661 3.50797 10.0661C2.09084 10.0661 0.952495 8.92777 0.952495 7.51064ZM11.4532 13.1791C11.6158 13.3185 11.7087 13.5044 11.7319 13.7135C11.7552 13.9226 11.6855 14.1084 11.5461 14.271C11.2673 14.5963 10.7795 14.6427 10.4542 14.364C10.2916 14.2246 10.1987 14.0387 10.1754 13.8296C10.1754 13.8064 10.1754 13.7832 10.1754 13.7599C10.1754 13.5741 10.2451 13.4115 10.3613 13.2721C10.5007 13.1095 10.6865 13.0165 10.8956 12.9933C11.1047 12.9701 11.3138 13.0398 11.4532 13.1791ZM13.242 6.744C13.6602 6.744 14.0086 7.09247 14.0086 7.51064C14.0086 7.92881 13.6602 8.27728 13.242 8.27728C12.8238 8.27728 12.4754 7.92881 12.4754 7.51064C12.4754 7.09247 12.8238 6.744 13.242 6.744ZM11.5693 0.750256C11.7087 0.912876 11.7552 1.09873 11.7552 1.30781C11.7319 1.5169 11.639 1.70275 11.4764 1.84214C11.3138 1.98153 11.1279 2.02799 10.9188 2.02799C10.7098 2.00476 10.5239 1.91183 10.3845 1.74921C10.2684 1.60982 10.1987 1.42397 10.1987 1.26135C10.1987 1.23812 10.1987 1.21489 10.1987 1.19166C10.2219 0.982572 10.3148 0.796719 10.4774 0.657329C10.8027 0.37855 11.2905 0.425014 11.5693 0.750256Z" fill="white"/>
</svg>
