<svg width="20" height="20" viewBox="0 0 20 20" fill="none" xmlns="http://www.w3.org/2000/svg">
<path d="M11.9892 12.4942V3.99631C11.9892 2.89552 11.0937 2 9.99292 2C8.89229 2 7.99677 2.89552 7.99677 3.99631V12.6468C7.38749 13.2073 7.0267 13.9911 7.00142 14.8211C6.97662 15.635 7.27837 16.4177 7.85101 17.0246C8.42269 17.6305 9.1846 17.9764 9.99644 17.999C10.0257 17.9996 10.055 18.0002 10.0843 17.9999C10.8923 17.9999 11.6524 17.6918 12.2335 17.127C12.8355 16.5412 13.167 15.7561 13.167 14.9163C13.1671 13.9708 12.7297 13.0777 11.9892 12.4942ZM11.7878 16.6686C11.3107 17.1322 10.6792 17.3775 10.0142 17.3594C9.3734 17.342 8.77037 17.067 8.31613 16.5855C7.86077 16.1031 7.62077 15.4834 7.64045 14.8403C7.66173 14.1425 7.98269 13.4852 8.52093 13.0372C8.59405 12.9763 8.63613 12.8865 8.63613 12.7915V3.99631C8.63613 3.24815 9.24476 2.63952 9.99292 2.63952C10.7409 2.63952 11.3497 3.24815 11.3497 3.99631V12.6547C11.3497 12.759 11.4003 12.8564 11.4856 12.9163C12.138 13.3745 12.5276 14.1223 12.5276 14.9163C12.5278 15.5818 12.2649 16.2044 11.7878 16.6686Z" fill="#EF6700"/>
<path d="M11.1181 13.44L10.7103 13.1537V8.34641C10.7103 8.16993 10.5672 8.02673 10.3906 8.02673H9.5949C9.41842 8.02673 9.27523 8.16993 9.27523 8.34641V13.2411L8.92963 13.5289C8.53203 13.8605 8.29507 14.3457 8.27939 14.8601C8.26483 15.3318 8.44307 15.7889 8.78099 16.1467C9.11763 16.5038 9.56194 16.7076 10.0362 16.7208L10.0842 16.7214C10.5661 16.7214 11.0191 16.5337 11.36 16.1928C11.701 15.8515 11.8887 15.3982 11.8887 14.9165C11.8885 14.3307 11.6007 13.7787 11.1181 13.44Z" fill="#EF6700"/>
<path d="M9.59458 7.07954H10.3903C10.5669 7.07954 10.7099 6.93634 10.7099 6.75986C10.7099 6.58338 10.5669 6.44019 10.3903 6.44019H9.59458C9.4181 6.44019 9.2749 6.58338 9.2749 6.75986C9.2749 6.9365 9.4181 7.07954 9.59458 7.07954Z" fill="#EF6700"/>
<path d="M9.59458 5.49385H10.3903C10.5669 5.49385 10.7099 5.35065 10.7099 5.17417C10.7099 4.99769 10.5669 4.85449 10.3903 4.85449H9.59458C9.4181 4.85449 9.2749 4.99769 9.2749 5.17417C9.2749 5.35065 9.4181 5.49385 9.59458 5.49385Z" fill="#EF6700"/>
</svg>
