<svg width="26" height="26" viewBox="0 0 26 26" fill="none" xmlns="http://www.w3.org/2000/svg">
<path d="M17.0414 9.40571C17.0414 8.3541 16.1857 7.49927 15.1349 7.49927C14.6429 7.49927 14.1961 7.68798 13.8574 7.99442V10.8178C14.1961 11.1243 14.6429 11.313 15.1349 11.313C16.1865 11.313 17.0414 10.4574 17.0414 9.40654V9.40571Z" fill="#EF6700"/>
<path d="M19.3536 9.54357C19.2963 9.46051 19.2963 9.34922 19.3536 9.26697L19.7891 8.63633C19.9479 8.40568 19.9891 8.12181 19.9028 7.8557C19.8165 7.58956 19.6149 7.38474 19.3512 7.29198L18.6293 7.03956C18.5342 7.00569 18.4681 6.91536 18.4656 6.81457L18.4479 6.04845C18.4414 5.76941 18.3084 5.51539 18.0818 5.35087C17.8559 5.18636 17.5721 5.13879 17.3051 5.21781L16.5696 5.43636C16.4736 5.46459 16.368 5.43071 16.3067 5.35088L15.8414 4.74201C15.6712 4.52024 15.4139 4.39282 15.1349 4.39282C14.8558 4.39282 14.5978 4.52024 14.4284 4.74201L13.9639 5.35088C13.9365 5.38717 13.8986 5.41217 13.8574 5.4283V7.19925C14.234 6.9807 14.6695 6.85328 15.1349 6.85328C16.5422 6.85328 17.6865 7.99844 17.6865 9.4048C17.6865 10.8121 16.5413 11.9563 15.1349 11.9563C14.6695 11.9563 14.234 11.8289 13.8574 11.6104V13.3813C13.8986 13.3974 13.9357 13.4224 13.9631 13.4587L14.4284 14.0676C14.5986 14.2894 14.8558 14.4168 15.1349 14.4168C15.4139 14.4168 15.672 14.2894 15.8414 14.0676L16.3059 13.4587C16.3672 13.3781 16.4728 13.3434 16.5696 13.3732L17.3051 13.5918C17.5729 13.6716 17.856 13.6232 18.0818 13.4587C18.3076 13.2942 18.4406 13.0402 18.4479 12.7612L18.4656 11.995C18.4681 11.8942 18.5334 11.8039 18.6293 11.77L19.3512 11.5176C19.6149 11.4249 19.8165 11.2192 19.9028 10.9539C19.9891 10.6878 19.9479 10.4039 19.7891 10.1733L19.3536 9.54263V9.54357Z" fill="#EF6700"/>
<path d="M13.3298 18.2064C13.3298 19.6064 12.1943 20.7419 10.7943 20.7419C9.39431 20.7419 8.25879 19.6064 8.25879 18.2064C8.25879 16.8065 9.39431 15.671 10.7943 15.671C12.1943 15.671 13.3298 16.8065 13.3298 18.2064Z" fill="#EF6700"/>
<path d="M11.1961 5.84279C11.1961 5.62022 11.0155 5.43958 10.7929 5.43958C10.5703 5.43958 10.3896 5.62022 10.3896 5.84279V8.42343H11.1961V5.84279Z" fill="#EF6700"/>
<path d="M11.1961 15.0547V9.06848H10.3896V15.0547C10.5219 15.0378 10.6558 15.0265 10.7929 15.0265C10.93 15.0265 11.0639 15.0378 11.1961 15.0547Z" fill="#EF6700"/>
<path d="M13.2132 14.0694V4.61289C13.2132 3.72338 12.4897 3 11.6002 3H9.98723C9.09769 3 8.37428 3.72338 8.37428 4.61289V14.0694C6.90487 14.929 6 16.4968 6 18.2064C6 20.8492 8.15006 23 10.7938 23C13.4366 23 15.5875 20.85 15.5875 18.2064C15.5875 16.4968 14.6826 14.929 13.2132 14.0694ZM10.7937 21.387C9.03957 21.387 7.61296 19.9604 7.61296 18.2064C7.61296 16.8202 8.50573 15.6419 9.74526 15.2073V5.84293C9.74526 5.2647 10.2154 4.79455 10.7937 4.79455C11.3719 4.79455 11.8421 5.2647 11.8421 5.84293V15.2073C13.0817 15.642 13.9744 16.8202 13.9744 18.2064C13.9744 19.9604 12.5477 21.387 10.7937 21.387Z" fill="#EF6700"/>
</svg>
