<svg width="9" height="16" viewBox="0 0 9 16" fill="none" xmlns="http://www.w3.org/2000/svg">
<path fill-rule="evenodd" clip-rule="evenodd" d="M6.4011 8.04816C8.56318 9.55807 8.89007 12.7815 7.03924 14.7273C4.44802 17.4513 0 15.5116 0 11.662C0 10.1961 0.704801 8.84516 1.84576 8.04868V2.39552C1.84576 0.287509 4.2897 -0.811269 5.73168 0.70472C6.14442 1.13861 6.4003 1.7367 6.4003 2.39552V8.04799L6.4011 8.04816ZM7.42973 1.23215V1.88831H9V1.23215H7.42973ZM7.42973 6.97416V7.63032H9V6.97416H7.42973ZM7.42973 5.53902V6.19518H9V5.53902H7.42973ZM7.42973 4.10321V4.75937H9V4.10321H7.42973ZM7.42973 2.66806V3.32422H9V2.66806H7.42973ZM3.42124 9.51535C2.56213 9.82574 1.96528 10.6795 1.96528 11.6615C1.96528 13.676 4.293 14.6919 5.64932 13.2655C6.7821 12.0746 6.32364 10.0568 4.82578 9.51547V3.77482C4.82578 2.80359 3.42124 2.80359 3.42124 3.77482V9.51535ZM4.20161 9.39453V3.7747C4.20161 3.66723 4.04541 3.66723 4.04541 3.7747V9.39384L4.20161 9.39453ZM5.20803 10.5213C4.24415 9.50801 2.58951 10.2289 2.58951 11.6614C2.58951 13.0939 4.24427 13.8154 5.20803 12.8015C5.80743 12.1721 5.80743 11.1515 5.20803 10.5213ZM7.17326 9.85311C6.81451 9.18627 6.384 8.79777 5.77634 8.41262L5.77697 2.39565C5.77697 0.870386 4.00599 0.0653221 2.9564 1.16877C2.65669 1.48384 2.47065 1.91838 2.47065 2.39565V8.41262C1.86299 8.79777 1.43249 9.18559 1.07373 9.85311C-0.230479 12.2795 1.43121 15.34 4.12349 15.34C6.81578 15.34 8.4774 12.2795 7.17326 9.85311Z" fill="white"/>
</svg>
