<svg width="12" height="16" viewBox="0 0 12 16" fill="none" xmlns="http://www.w3.org/2000/svg">
<path fill-rule="evenodd" clip-rule="evenodd" d="M0.47433 0.348997C0.405869 0.348997 0.349283 0.404883 0.349283 0.474043V10.5637C0.349283 10.6328 0.40517 10.6887 0.47433 10.6887H10.8476C10.9168 10.6887 10.9726 10.6328 10.9726 10.5637V0.474043C10.9726 0.404883 10.9168 0.348997 10.8476 0.348997H0.47433ZM10.8469 11.0386H0.47433C0.213067 11.0386 0 10.8256 0 10.5643V0.474665C0 0.213402 0.213067 0.000335693 0.47433 0.000335693H10.8476C11.1089 0.000335693 11.3219 0.213402 11.3219 0.474665V10.5643C11.3219 10.8256 11.1089 11.0386 10.8476 11.0386H10.8469Z" fill="white"/>
<path fill-rule="evenodd" clip-rule="evenodd" d="M9.64028 13.7767H1.6806C1.34389 13.7767 1.06934 13.5029 1.06934 13.1654V10.8643C1.06934 10.7679 1.14758 10.6897 1.24398 10.6897C1.34039 10.6897 1.41863 10.7679 1.41863 10.8643V13.1654C1.41863 13.31 1.53599 13.4274 1.68059 13.4274H9.64027C9.78487 13.4274 9.90223 13.31 9.90223 13.1654V10.8643C9.90223 10.7679 9.98047 10.6897 10.0769 10.6897C10.1733 10.6897 10.2515 10.7679 10.2515 10.8643V13.1654C10.2515 13.5022 9.977 13.7767 9.64028 13.7767Z" fill="white"/>
<path fill-rule="evenodd" clip-rule="evenodd" d="M3.03207 15.1065C2.93566 15.1065 2.85742 15.0282 2.85742 14.9318V13.6017C2.85742 13.5053 2.93566 13.4271 3.03207 13.4271C3.12847 13.4271 3.20671 13.5053 3.20671 13.6017V14.9318C3.20671 15.0282 3.12847 15.1065 3.03207 15.1065ZM4.11557 15.1065C4.01917 15.1065 3.94092 15.0282 3.94092 14.9318V13.6017C3.94092 13.5053 4.01917 13.4271 4.11557 13.4271C4.21267 13.4271 4.29021 13.5053 4.29021 13.6017V14.9318C4.29021 15.0282 4.21197 15.1065 4.11557 15.1065Z" fill="white"/>
<path fill-rule="evenodd" clip-rule="evenodd" d="M3.09512 15.6493H4.05218V15.1072H3.09512V15.6493ZM4.11505 15.9986H3.03154C2.87366 15.9986 2.74512 15.8701 2.74512 15.7129V15.0443C2.74512 14.8865 2.87366 14.7586 3.03154 14.7586H4.11505C4.27292 14.7586 4.40147 14.8871 4.40147 15.045V15.7136C4.40147 15.8715 4.27293 16 4.11505 16V15.9986Z" fill="white"/>
<path fill-rule="evenodd" clip-rule="evenodd" d="M7.20492 15.1065C7.10852 15.1065 7.03027 15.0282 7.03027 14.9318V13.6017C7.03027 13.5053 7.10852 13.4271 7.20492 13.4271C7.30132 13.4271 7.37956 13.5053 7.37956 13.6017V14.9318C7.37956 15.0282 7.30132 15.1065 7.20492 15.1065ZM8.28842 15.1065C8.19202 15.1065 8.11378 15.0282 8.11378 14.9318V13.6017C8.11378 13.5053 8.19202 13.4271 8.28842 13.4271C8.38483 13.4271 8.46307 13.5053 8.46307 13.6017V14.9318C8.46307 15.0282 8.38483 15.1065 8.28842 15.1065Z" fill="white"/>
<path fill-rule="evenodd" clip-rule="evenodd" d="M7.26853 15.6493H8.22559V15.1072H7.26853V15.6493ZM8.28915 15.9986H7.20565C7.04847 15.9986 6.91992 15.8701 6.91992 15.7129V15.0443C6.91992 14.8865 7.04846 14.7586 7.20565 14.7586H8.28915C8.44703 14.7586 8.57488 14.8871 8.57488 15.045V15.7136C8.57488 15.8715 8.44704 16 8.28915 16V15.9986Z" fill="white"/>
<path fill-rule="evenodd" clip-rule="evenodd" d="M5.66054 3.80729C5.45446 3.80729 5.2868 3.97495 5.2868 4.18102C5.2868 4.38709 5.45446 4.55475 5.66054 4.55475C5.86661 4.55475 6.03427 4.38709 6.03427 4.18102C6.03427 3.97495 5.86661 3.80729 5.66054 3.80729ZM5.66054 4.90476C5.26164 4.90476 4.9375 4.58061 4.9375 4.18172C4.9375 3.78282 5.26234 3.45868 5.66054 3.45868C6.05943 3.45868 6.38358 3.78282 6.38358 4.18172C6.38358 4.58061 6.05874 4.90476 5.66054 4.90476Z" fill="white"/>
<path fill-rule="evenodd" clip-rule="evenodd" d="M5.18528 4.08185C5.15525 4.08185 5.12591 4.07417 5.09796 4.0588L4.24849 3.56839C4.16466 3.52019 4.13671 3.41331 4.18422 3.33018C4.23242 3.24635 4.3393 3.21841 4.42312 3.26591L5.2726 3.75632C5.35643 3.80452 5.38437 3.9114 5.33687 3.99523C5.30474 4.05111 5.24536 4.08255 5.18528 4.08255L5.18528 4.08185Z" fill="white"/>
<path fill-rule="evenodd" clip-rule="evenodd" d="M4.11838 6.22164H7.20332C7.83973 5.73892 8.21906 4.98096 8.21906 4.18111C8.21906 2.77067 7.07129 1.62356 5.66151 1.62356C4.25108 1.62356 3.10396 2.77133 3.10396 4.18111C3.10396 4.98029 3.4826 5.73894 4.11901 6.22164H4.11838ZM7.26055 6.57092H4.06026C4.02323 6.57092 3.98761 6.55905 3.95827 6.53809C3.20379 5.9925 2.75391 5.11158 2.75391 4.18173C2.75391 2.5785 4.05817 1.2742 5.66073 1.2742C7.26328 1.2742 8.56754 2.57846 8.56754 4.18173C8.56754 5.11154 8.11696 5.99246 7.36318 6.53809C7.33314 6.55975 7.29757 6.57092 7.26055 6.57092Z" fill="white"/>
<path fill-rule="evenodd" clip-rule="evenodd" d="M5.66097 2.11393C5.56457 2.11393 5.48633 2.03569 5.48633 1.93928V1.44888C5.48633 1.35247 5.56457 1.27423 5.66097 1.27423C5.75738 1.27423 5.83562 1.35247 5.83562 1.44888V1.93928C5.83562 2.03569 5.75738 2.11393 5.66097 2.11393Z" fill="white"/>
<path fill-rule="evenodd" clip-rule="evenodd" d="M6.7821 2.4141C6.75206 2.4141 6.72272 2.40642 6.69477 2.39105C6.61094 2.34285 6.583 2.23596 6.6305 2.15214L6.87571 1.7274C6.92391 1.64357 7.03079 1.61563 7.11462 1.66383C7.19775 1.71203 7.22639 1.81892 7.17819 1.90274L6.93368 2.32748C6.90155 2.38336 6.84217 2.4148 6.78209 2.4148L6.7821 2.4141Z" fill="white"/>
<path fill-rule="evenodd" clip-rule="evenodd" d="M7.60272 3.23479C7.54264 3.23479 7.48396 3.20335 7.45113 3.14746C7.40293 3.06363 7.43157 2.95745 7.5154 2.90925L7.94014 2.66405C8.02327 2.61585 8.13015 2.64449 8.17835 2.72832C8.22654 2.81215 8.19791 2.91833 8.11478 2.96653L7.69004 3.21173C7.6621 3.2278 7.63206 3.23549 7.60272 3.23549L7.60272 3.23479Z" fill="white"/>
<path fill-rule="evenodd" clip-rule="evenodd" d="M8.39259 4.35637H7.90218C7.80578 4.35637 7.72754 4.27813 7.72754 4.18173C7.72754 4.08532 7.80578 4.00708 7.90218 4.00708H8.39259C8.489 4.00708 8.56724 4.08532 8.56724 4.18173C8.56724 4.27813 8.489 4.35637 8.39259 4.35637Z" fill="white"/>
<path fill-rule="evenodd" clip-rule="evenodd" d="M8.02648 5.72206C7.99714 5.72206 7.9664 5.71438 7.93916 5.69901L7.51442 5.4538C7.43059 5.4056 7.40195 5.29872 7.45015 5.21559C7.49835 5.13176 7.60524 5.10312 7.68906 5.15132L8.1138 5.39653C8.19693 5.44473 8.22557 5.55161 8.17737 5.63543C8.14523 5.69132 8.08655 5.72276 8.02578 5.72276L8.02648 5.72206Z" fill="white"/>
<path fill-rule="evenodd" clip-rule="evenodd" d="M3.29413 5.72209C3.23405 5.72209 3.17537 5.69065 3.14253 5.63476C3.09433 5.55093 3.12297 5.44475 3.2068 5.39585L3.63154 5.15065C3.71467 5.10245 3.82156 5.13109 3.87045 5.21492C3.91865 5.29805 3.89001 5.40494 3.80618 5.45313L3.38144 5.69834C3.3542 5.7144 3.32417 5.72209 3.29413 5.72209Z" fill="white"/>
<path fill-rule="evenodd" clip-rule="evenodd" d="M3.41826 4.35637H2.92855C2.83215 4.35637 2.75391 4.27813 2.75391 4.18173C2.75391 4.08532 2.83215 4.00708 2.92855 4.00708H3.41896C3.51536 4.00708 3.5936 4.08532 3.5936 4.18173C3.5936 4.27813 3.51536 4.35637 3.41896 4.35637H3.41826Z" fill="white"/>
<path fill-rule="evenodd" clip-rule="evenodd" d="M3.71855 3.23479C3.68852 3.23479 3.65918 3.2271 3.63123 3.21173L3.20649 2.96653C3.12266 2.91833 3.09472 2.81144 3.14222 2.72832C3.19043 2.64449 3.29731 2.61585 3.38113 2.66405L3.80587 2.90925C3.8897 2.95745 3.91764 3.06434 3.87014 3.14816C3.83801 3.20405 3.77863 3.23548 3.71855 3.23548L3.71855 3.23479Z" fill="white"/>
<path fill-rule="evenodd" clip-rule="evenodd" d="M4.53933 2.41429C4.47925 2.41429 4.42057 2.38285 4.38774 2.32697L4.14253 1.90223C4.09433 1.8184 4.12297 1.71222 4.20681 1.66402C4.28994 1.61582 4.39682 1.64446 4.44502 1.72829L4.69022 2.15303C4.73842 2.23686 4.70978 2.34304 4.62665 2.39194C4.59871 2.408 4.56867 2.41569 4.53933 2.41499L4.53933 2.41429Z" fill="white"/>
<path fill-rule="evenodd" clip-rule="evenodd" d="M7.26052 7.84497H4.06023C2.75178 7.84497 1.68652 6.78033 1.68652 5.47126V0.174645C1.68652 0.0782413 1.76476 0 1.86117 0C1.95757 0 2.03581 0.0782413 2.03581 0.174645V5.47126C2.03581 6.5876 2.94397 7.4957 4.06025 7.4957H7.26054C8.37688 7.4957 9.28498 6.58755 9.28498 5.47126V0.174645C9.28498 0.0782413 9.36322 0 9.45962 0C9.55603 0 9.63427 0.0782413 9.63427 0.174645V5.47126C9.63427 6.78041 8.56959 7.84497 7.26052 7.84497Z" fill="white"/>
<path fill-rule="evenodd" clip-rule="evenodd" d="M3.57453 11.6255C3.23921 11.6255 2.96747 11.8979 2.96747 12.2326C2.96747 12.5672 3.23991 12.8396 3.57453 12.8396C3.90915 12.8396 4.18159 12.5672 4.18159 12.2326C4.18159 11.8979 3.90915 11.6255 3.57453 11.6255ZM3.57453 13.1889C3.0471 13.1889 2.61816 12.76 2.61816 12.2326C2.61816 11.7051 3.04709 11.2762 3.57453 11.2762C4.10196 11.2762 4.5309 11.7051 4.5309 12.2326C4.5309 12.76 4.10198 13.1889 3.57453 13.1889Z" fill="white"/>
<path fill-rule="evenodd" clip-rule="evenodd" d="M3.1831 13.085C3.15306 13.085 3.12372 13.0773 3.09578 13.0612C3.01265 13.013 2.98401 12.9061 3.03221 12.8223L3.81392 11.4685C3.86212 11.3846 3.96901 11.3567 4.05283 11.4049C4.13596 11.4531 4.1646 11.56 4.1171 11.6438L3.33539 12.9976C3.30325 13.0535 3.24457 13.085 3.18379 13.085H3.1831Z" fill="white"/>
<path fill-rule="evenodd" clip-rule="evenodd" d="M7.74738 11.6255C7.41276 11.6255 7.14032 11.8979 7.14032 12.2326C7.14032 12.5672 7.41276 12.8396 7.74738 12.8396C8.082 12.8396 8.35445 12.5672 8.35445 12.2326C8.35445 11.8979 8.082 11.6255 7.74738 11.6255ZM7.74738 13.1889C7.21996 13.1889 6.79102 12.76 6.79102 12.2326C6.79102 11.7051 7.22064 11.2762 7.74738 11.2762C8.27481 11.2762 8.70375 11.7051 8.70375 12.2326C8.70375 12.76 8.27483 13.1889 7.74738 13.1889Z" fill="white"/>
<path fill-rule="evenodd" clip-rule="evenodd" d="M7.35632 13.085C7.32628 13.085 7.29694 13.0773 7.26899 13.0612C7.18516 13.013 7.15722 12.9061 7.20472 12.8223L7.98644 11.4685C8.03464 11.3846 8.14152 11.3567 8.22535 11.4049C8.30848 11.4531 8.33712 11.56 8.28892 11.6438L7.5072 12.9976C7.47507 13.0535 7.41569 13.085 7.35561 13.085H7.35632Z" fill="white"/>
<path fill-rule="evenodd" clip-rule="evenodd" d="M11.1467 9.11232H0.174645C0.078241 9.11232 0 9.03408 0 8.93768C0 8.84127 0.078241 8.76303 0.174645 8.76303H11.1467C11.2431 8.76303 11.3213 8.84127 11.3213 8.93768C11.3213 9.03408 11.2431 9.11232 11.1467 9.11232Z" fill="white"/>
</svg>
