<svg width="13" height="16" viewBox="0 0 13 16" fill="none" xmlns="http://www.w3.org/2000/svg">
<path fill-rule="evenodd" clip-rule="evenodd" d="M4.31847 0C6.38458 3.33605 0 4.13154 0 10.1027C0 13.0204 2.10134 15.3204 4.93634 15.9722C4.45919 15.5324 4.15993 14.888 4.15993 14.1583C4.15993 11.8361 6.24459 10.1278 7.78913 10.1278C6.43458 12.5444 8.85 12.5287 8.85 14.1583C8.85 14.9139 8.53034 15.5648 8.02632 16C10.8142 15.3704 12.7618 12.9418 12.9897 10.1028C13.1055 8.66389 12.2522 5.45639 10.0813 4.28803C10.0813 5.70656 9.28727 6.45746 8.44602 6.45746C9.90806 3.92781 7.58622 0.000118453 4.31754 0.000118453L4.31847 0Z" fill="white"/>
</svg>
