<svg width="16" height="14" viewBox="0 0 16 14" fill="none" xmlns="http://www.w3.org/2000/svg">
<path d="M4.08766 8.04441C3.6568 7.53202 3.39726 6.87077 3.39726 6.14891C3.39726 4.52134 4.71667 3.20193 6.34424 3.20193C7.62626 3.20193 8.71708 4.02057 9.12248 5.16361C9.22225 5.15505 9.32304 5.15068 9.42466 5.15068C10.7019 5.15068 11.8515 5.83995 12.4668 6.91171C13.5704 6.99905 14.4649 7.82952 14.6498 8.90276C15.4592 9.29926 16 10.1298 16 11.0685C16 12.3261 15.037 13.3589 13.8082 13.4696L4.82192 13.4795C3.49038 13.4795 2.41096 12.4 2.41096 11.0685C2.41096 10.1298 2.95173 9.29926 3.76115 8.90276C3.81465 8.59229 3.92752 8.30214 4.08766 8.04441ZM4.51741 7.52907C4.94539 7.14073 5.51356 6.90411 6.13699 6.90411C6.21849 6.90411 6.29951 6.90818 6.37982 6.91624C6.83471 6.12114 7.58488 5.53432 8.46474 5.28415C8.12356 4.44841 7.30268 3.85947 6.34424 3.85947C5.07981 3.85947 4.05479 4.88449 4.05479 6.14891C4.05479 6.66723 4.22704 7.14533 4.51741 7.52907ZM6.68493 2.08219C6.68493 2.26376 6.53774 2.41096 6.35616 2.41096C6.17459 2.41096 6.0274 2.26376 6.0274 2.08219V0.328767C6.0274 0.147194 6.17459 0 6.35616 0C6.53774 0 6.68493 0.147194 6.68493 0.328767V2.08219ZM0.328767 6.46575C0.147194 6.46575 0 6.31856 0 6.13699C0 5.95541 0.147194 5.80822 0.328767 5.80822H2.08219C2.26376 5.80822 2.41096 5.95541 2.41096 6.13699C2.41096 6.31856 2.26376 6.46575 2.08219 6.46575H0.328767ZM8.72308 2.8045C8.63229 2.96174 8.43122 3.01562 8.27397 2.92483C8.11673 2.83405 8.06285 2.63298 8.15364 2.47573L9.03035 0.957219C9.12113 0.799973 9.32221 0.746096 9.47945 0.836882C9.6367 0.927669 9.69058 1.12874 9.59979 1.28599L8.72308 2.8045ZM1.06681 3.57239C0.909562 3.48161 0.855685 3.28053 0.946471 3.12329C1.03726 2.96604 1.23833 2.91216 1.39558 3.00295L2.91409 3.87966C3.07133 3.97045 3.12521 4.17152 3.03442 4.32877C2.94364 4.48601 2.74257 4.53989 2.58532 4.4491L1.06681 3.57239ZM10.127 4.4491C9.96976 4.53989 9.76869 4.48601 9.67791 4.32877C9.58712 4.17152 9.641 3.97045 9.79824 3.87966L11.3168 3.00295C11.474 2.91216 11.6751 2.96604 11.7659 3.12329C11.8566 3.28053 11.8028 3.48161 11.6455 3.57239L10.127 4.4491ZM1.39558 9.4902C1.23833 9.58099 1.03726 9.52711 0.946471 9.36986C0.855685 9.21262 0.909562 9.01155 1.06681 8.92076L2.58532 8.04405C2.74257 7.95326 2.94364 8.00714 3.03442 8.16438C3.12521 8.32163 3.07133 8.5227 2.91409 8.61349L1.39558 9.4902ZM3.11254 1.28599C3.02175 1.12874 3.07563 0.927669 3.23288 0.836882C3.39012 0.746096 3.59119 0.799973 3.68198 0.957219L4.55869 2.47573C4.64948 2.63298 4.5956 2.83405 4.43836 2.92483C4.28111 3.01562 4.08004 2.96174 3.98925 2.8045L3.11254 1.28599ZM13.776 12.8121C14.6614 12.7187 15.3425 11.9684 15.3425 11.0685C15.3425 10.3953 14.9578 9.78582 14.3606 9.49325L14.0589 9.34547L14.0018 9.01442C13.8668 8.23056 13.212 7.63028 12.4149 7.56719L12.0692 7.53984L11.8966 7.2391C11.3905 6.35766 10.4506 5.80822 9.42466 5.80822C8.39685 5.80822 7.45566 6.3599 6.95054 7.24277L6.73868 7.61308L6.31417 7.57048C6.25552 7.5646 6.1964 7.56164 6.13699 7.56164C5.28041 7.56164 4.55283 8.18048 4.40913 9.01442L4.35208 9.34547L4.05041 9.49325C3.45315 9.78582 3.06849 10.3953 3.06849 11.0685C3.06849 12.0368 3.85335 12.8217 4.82159 12.8219L13.776 12.8121Z" fill="white"/>
</svg>
