<svg width="66" height="66" viewBox="0 0 66 66" fill="none" xmlns="http://www.w3.org/2000/svg">
<ellipse cx="33.5" cy="33.5" rx="26.5" ry="27.5" fill="url(#paint0_linear_874_11)"/>
<path d="M37.5198 37.9132C38.5398 38.6895 39.39 39.6998 39.998 40.8651C40.6587 42.1302 41.0361 43.576 41.0361 45.1028C41.0361 47.5487 40.0771 49.7744 38.5348 51.3872C36.9909 53 34.862 54 32.5188 54C30.1774 54 28.0484 52.9983 26.5045 51.3872C24.959 49.7761 24 47.5505 24 45.1028C24 43.5984 24.3691 42.1457 25.0397 40.8617C25.6395 39.7153 26.4798 38.7033 27.5146 37.9166V17.2257C27.5146 15.7902 28.0781 14.4837 28.9827 13.5371C29.8923 12.587 31.1429 12 32.5155 12C33.888 12 35.1387 12.5886 36.0449 13.5354C36.9544 14.4855 37.518 15.7919 37.518 17.2257V37.9149L37.5198 37.9132ZM39.2697 32.4141C38.8034 32.4141 38.4261 32.0199 38.4261 31.5328C38.4261 31.0457 38.8034 30.6515 39.2697 30.6515H41.1564C41.6227 30.6515 42 31.0457 42 31.5328C42 32.0199 41.6227 32.4141 41.1564 32.4141H39.2697ZM39.2697 20.3499C38.8034 20.3499 38.4261 19.9557 38.4261 19.4686C38.4261 18.9815 38.8034 18.5873 39.2697 18.5873H41.1564C41.6227 18.5873 42 18.9815 42 19.4686C42 19.9557 41.6227 20.3499 41.1564 20.3499H39.2697ZM39.2697 24.3707C38.8034 24.3707 38.4261 23.9765 38.4261 23.4894C38.4261 23.0023 38.8034 22.6081 39.2697 22.6081H41.1564C41.6227 22.6081 42 23.0023 42 23.4894C42 23.9765 41.6227 24.3707 41.1564 24.3707H39.2697ZM39.2697 28.3915C38.8034 28.3915 38.4261 27.9973 38.4261 27.5102C38.4261 27.0231 38.8034 26.6289 39.2697 26.6289H41.1564C41.6227 26.6289 42 27.0231 42 27.5102C42 27.9973 41.6227 28.3915 41.1564 28.3915H39.2697ZM39.2697 36.4331C38.8034 36.4331 38.4261 36.0389 38.4261 35.5518C38.4261 35.0647 38.8034 34.6706 39.2697 34.6706H41.1564C41.6227 34.6706 42 35.0647 42 35.5518C42 36.0389 41.6227 36.4331 41.1564 36.4331H39.2697ZM32.5189 24.6703C33.1335 24.6703 33.6904 24.9319 34.0942 25.3537C34.4978 25.7754 34.7483 26.3588 34.7483 26.9992V39.905C35.615 40.3112 36.3614 40.948 36.9167 41.7381C37.5791 42.6813 37.9713 43.8466 37.9713 45.1014C37.9713 46.6729 37.36 48.0981 36.3746 49.1291L36.3268 49.1755C35.3431 50.179 33.9986 50.797 32.5206 50.797C31.0162 50.797 29.6519 50.1584 28.6649 49.1291C27.6779 48.0981 27.0682 46.6746 27.0682 45.1014C27.0682 43.8449 27.4604 42.6813 28.1228 41.7381C28.6781 40.948 29.4245 40.3112 30.2912 39.905V26.9992C30.2912 26.3606 30.5433 25.7788 30.9453 25.3571C31.349 24.9319 31.9076 24.6703 32.5206 24.6703L32.5189 24.6703ZM38.5231 41.7036C37.9843 40.6726 37.2082 39.793 36.2723 39.1458C36.0103 38.996 35.834 38.7052 35.834 38.373V17.2242C35.834 16.2741 35.46 15.4066 34.8602 14.7783C34.2587 14.1518 33.43 13.7628 32.5187 13.7628C31.6075 13.7628 30.7771 14.1518 30.1773 14.7783C29.5775 15.4066 29.2052 16.2723 29.2052 17.2242V38.3747C29.2019 38.6622 29.0667 38.9427 28.8196 39.1114C27.8425 39.7741 27.0582 40.6692 26.5177 41.7002C25.9839 42.7226 25.6889 43.8896 25.6889 45.1013C25.6889 47.0635 26.4584 48.8468 27.6959 50.1396C28.9317 51.434 30.642 52.236 32.5206 52.236C34.3992 52.236 36.1061 51.4322 37.3437 50.1396C38.5811 48.8469 39.3506 47.062 39.3506 45.1013C39.3506 43.8707 39.0503 42.7105 38.5231 41.7036Z" fill="url(#paint1_linear_874_11)"/>
<defs>
<linearGradient id="paint0_linear_874_11" x1="33.5" y1="6" x2="33.5" y2="61" gradientUnits="userSpaceOnUse">
<stop stop-color="#FA000F"/>
<stop offset="1" stop-color="#2D96FF"/>
</linearGradient>
<linearGradient id="paint1_linear_874_11" x1="33" y1="12" x2="33" y2="54" gradientUnits="userSpaceOnUse">
<stop stop-color="white"/>
<stop offset="1" stop-color="#E1E1E1"/>
</linearGradient>
</defs>
</svg>
