<svg width="16" height="16" viewBox="0 0 16 16" fill="none" xmlns="http://www.w3.org/2000/svg">
<path d="M4.65126 12.2787C4.34289 12.2787 4.09314 12.029 4.09314 11.7206C4.09314 10.9462 4.34359 10.529 4.54521 10.1941C4.71474 9.91157 4.83752 9.70784 4.83752 9.24252C4.83752 8.77648 4.71474 8.57207 4.54451 8.28812C4.34289 7.95255 4.09314 7.53536 4.09314 6.76025C4.09314 5.98515 4.34359 5.56796 4.54451 5.23239C4.71474 4.94915 4.83752 4.74472 4.83752 4.2787C4.83752 3.97034 5.08728 3.72058 5.39565 3.72058C5.70402 3.72058 5.95377 3.97034 5.95377 4.2787C5.95377 5.05379 5.70332 5.471 5.5024 5.80657C5.33217 6.08981 5.20939 6.29423 5.20939 6.76025C5.20939 7.22627 5.33217 7.4307 5.5024 7.71394C5.70262 8.04951 5.95377 8.46741 5.95377 9.2425C5.95377 10.0162 5.70332 10.4334 5.5017 10.7683C5.33217 11.0508 5.20939 11.2552 5.20939 11.7199C5.20939 12.0282 4.95963 12.278 4.65126 12.278V12.2787ZM8.18628 11.7206C8.18628 11.2559 8.30907 11.0515 8.47859 10.769C8.68021 10.4341 8.93066 10.0169 8.93066 9.24321C8.93066 8.46813 8.68021 8.05022 8.47929 7.71465C8.30906 7.43141 8.18628 7.22699 8.18628 6.76097C8.18628 6.29495 8.30907 6.09052 8.47929 5.80728C8.67952 5.47171 8.93066 5.05452 8.93066 4.27942C8.93066 3.97105 8.68091 3.7213 8.37254 3.7213C8.06417 3.7213 7.81442 3.97105 7.81442 4.27942C7.81442 4.74546 7.69163 4.94986 7.52141 5.2331C7.32118 5.56867 7.07003 5.98586 7.07003 6.76097C7.07003 7.53607 7.31979 7.95326 7.52141 8.28883C7.69164 8.57207 7.81442 8.7765 7.81442 9.24323C7.81442 9.70787 7.69163 9.91158 7.5221 10.1948C7.32048 10.5297 7.07003 10.9469 7.07003 11.7213C7.07003 12.0297 7.31979 12.2794 7.62816 12.2794C7.93653 12.2794 8.18628 12.0297 8.18628 11.7213V11.7206ZM11.1625 11.7206C11.1625 11.2559 11.2852 11.0515 11.4548 10.769C11.6564 10.4341 11.9068 10.0169 11.9068 9.24321C11.9068 8.46813 11.6564 8.05022 11.4555 7.71465C11.2852 7.43141 11.1625 7.22699 11.1625 6.76097C11.1625 6.29495 11.2852 6.09052 11.4555 5.80728C11.6557 5.47171 11.9068 5.05452 11.9068 4.27942C11.9068 3.97105 11.6571 3.7213 11.3487 3.7213C11.0404 3.7213 10.7906 3.97105 10.7906 4.27942C10.7906 4.74546 10.6678 4.94986 10.4976 5.2331C10.2974 5.56867 10.0462 5.98586 10.0462 6.76097C10.0462 7.53607 10.296 7.95326 10.4976 8.28883C10.6678 8.57207 10.7906 8.7765 10.7906 9.24323C10.7906 9.70787 10.6678 9.91158 10.4983 10.1948C10.2967 10.5297 10.0462 10.9469 10.0462 11.7213C10.0462 12.0297 10.296 12.2794 10.6043 12.2794C10.9127 12.2794 11.1625 12.0297 11.1625 11.7213V11.7206ZM16 8C16 3.58878 12.4112 0 8 0C3.58878 0 0 3.58878 0 8C0 12.4112 3.58878 16 8 16C12.4112 16 16 12.4112 16 8ZM14.8838 8C14.8838 11.796 11.796 14.8838 8 14.8838C4.20405 14.8838 1.11625 11.796 1.11625 8C1.11625 4.20405 4.20405 1.11625 8 1.11625C11.796 1.11625 14.8838 4.20405 14.8838 8Z" fill="white"/>
</svg>
