<svg width="16" height="16" viewBox="0 0 16 16" fill="none" xmlns="http://www.w3.org/2000/svg">
<path d="M8 0.000106812C3.58737 0.000106812 0 3.51476 0 7.83794C0 12.1611 3.58737 15.6758 8 15.6758C12.4126 15.6758 16 12.1611 16 7.83794C16 3.51476 12.4126 0.000106812 8 0.000106812ZM8 14.5537C4.22737 14.5537 1.14526 11.5341 1.14526 7.83794C1.14526 4.14178 4.22737 1.12216 8 1.12216C11.7726 1.12216 14.8547 4.14178 14.8547 7.83794C14.8547 11.5341 11.7726 14.5537 8 14.5537Z" fill="#2D96FF"/>
<path d="M8.40435 5.61122C8.30329 5.51222 8.15171 5.44621 8.00014 5.44621C7.84856 5.44621 7.69698 5.51222 7.59592 5.61122L4.51382 8.63085C4.29487 8.84536 4.29487 9.20837 4.51382 9.42288C4.73277 9.63739 5.10329 9.63739 5.32224 9.42288L8.00014 6.81577L10.6612 9.42288C10.7791 9.53839 10.9138 9.58789 11.0654 9.58789C11.217 9.58789 11.3686 9.53839 11.4696 9.42288C11.6886 9.20837 11.6886 8.84536 11.4696 8.63085L8.40435 5.61122Z" fill="#2D96FF"/>
</svg>
