<svg width="16" height="16" viewBox="0 0 16 16" fill="none" xmlns="http://www.w3.org/2000/svg">
<g clip-path="url(#clip0_1171_7833)">
<path fill-rule="evenodd" clip-rule="evenodd" d="M8 0C3.58453 0 0 3.58453 0 8C0 12.4155 3.58453 16 8 16C12.4155 16 16 12.4155 16 8C16 3.58453 12.4155 0 8 0ZM8 2.13333C4.76213 2.13333 2.13333 4.76213 2.13333 8C2.13333 11.2379 4.76213 13.8667 8 13.8667C11.2379 13.8667 13.8667 11.2379 13.8667 8C13.8667 4.76213 11.2379 2.13333 8 2.13333ZM8 5.06667C6.3808 5.06667 5.06667 6.3808 5.06667 8C5.06667 9.6192 6.3808 10.9333 8 10.9333C9.6192 10.9333 10.9333 9.6192 10.9333 8C10.9333 6.3808 9.6192 5.06667 8 5.06667Z" fill="white"/>
</g>
<defs>
<clipPath id="clip0_1171_7833">
<rect width="16" height="16" fill="white"/>
</clipPath>
</defs>
</svg>
