<svg width="10" height="16" viewBox="0 0 10 16" fill="none" xmlns="http://www.w3.org/2000/svg">
<path d="M0.798878 9.6005H4.14798L2.9465 15.2881C2.91655 15.4195 2.93306 15.5574 2.99314 15.6777C3.05322 15.798 3.15307 15.8932 3.2753 15.9467C3.352 15.9818 3.43518 15.9999 3.51934 16C3.6095 15.9996 3.69829 15.9775 3.77838 15.9356C3.85848 15.8936 3.92759 15.833 3.98003 15.7587L9.84373 7.69193C9.93158 7.57137 9.98469 7.42848 9.99716 7.27916C10.0096 7.12985 9.98095 6.97995 9.91432 6.84616C9.8477 6.71236 9.74574 6.59991 9.61979 6.5213C9.49383 6.44269 9.34881 6.40101 9.20087 6.40089H5.85176L7.05325 0.713309C7.08314 0.582082 7.06673 0.444394 7.00687 0.324141C6.947 0.203889 6.84745 0.108662 6.7255 0.0549886C6.60507 -0.00257461 6.4685 -0.0154198 6.33967 0.0187001C6.21084 0.05282 6.09796 0.131733 6.02077 0.241633L0.156014 8.30946C0.0682611 8.43005 0.0152337 8.57293 0.00282208 8.72221C-0.00958957 8.87149 0.0191003 9.02133 0.0857048 9.15509C0.152309 9.28885 0.254221 9.40129 0.380118 9.47992C0.506015 9.55855 0.650969 9.60029 0.798878 9.6005ZM0.579061 8.62569L6.44487 0.558128C6.44889 0.551354 6.45451 0.545692 6.46121 0.541645C6.46792 0.537599 6.4755 0.535292 6.4833 0.534931C6.49243 0.535112 6.50141 0.537295 6.50963 0.54133C6.5156 0.543203 6.52115 0.546269 6.52593 0.550346C6.53072 0.554424 6.53465 0.559431 6.5375 0.565071C6.54034 0.570712 6.54205 0.576873 6.5425 0.58319C6.54296 0.589508 6.54217 0.595854 6.54017 0.601856L5.26865 6.61153C5.2604 6.65044 5.26085 6.69073 5.26998 6.72944C5.2791 6.76815 5.29667 6.8043 5.32138 6.83524C5.3461 6.86618 5.37733 6.89112 5.41281 6.90824C5.44828 6.92535 5.48708 6.93421 5.52638 6.93416H9.20087C9.2515 6.93411 9.30116 6.94831 9.34429 6.97518C9.38742 7.00205 9.42233 7.04052 9.44513 7.08632C9.46793 7.13211 9.47771 7.18342 9.4734 7.23452C9.46908 7.28562 9.45083 7.3345 9.42068 7.37571L3.55514 15.4433C3.55214 15.4488 3.54806 15.4537 3.54314 15.4576C3.53822 15.4615 3.53257 15.4643 3.52653 15.4659C3.52049 15.4675 3.51419 15.4678 3.50802 15.4669C3.50185 15.4659 3.49593 15.4637 3.49064 15.4603C3.48467 15.4585 3.47912 15.4554 3.47434 15.4513C3.46955 15.4472 3.46562 15.4422 3.46277 15.4366C3.45993 15.4309 3.45822 15.4248 3.45777 15.4185C3.45731 15.4122 3.4581 15.4058 3.4601 15.3998L4.73109 9.38986C4.73934 9.35095 4.73889 9.31067 4.72976 9.27196C4.72064 9.23325 4.70308 9.1971 4.67836 9.16616C4.65365 9.13522 4.62241 9.11028 4.58694 9.09316C4.55146 9.07604 4.51266 9.06718 4.47336 9.06724H0.798878C0.748242 9.06729 0.698588 9.05309 0.655456 9.02622C0.612325 8.99935 0.577412 8.96087 0.554614 8.91508C0.531816 8.86928 0.52203 8.81797 0.526347 8.76687C0.530663 8.71577 0.548914 8.6669 0.579061 8.62569Z" fill="white"/>
</svg>
