<svg width="22" height="22" viewBox="0 0 22 22" fill="none" xmlns="http://www.w3.org/2000/svg">
<path d="M1.62955 0H8.55501C9.45533 0 10.1846 0.900313 10.1846 1.62954V12.629C10.1846 13.5294 9.45533 14.2586 8.55501 14.2586H1.62955C0.729231 14.2586 0 13.3583 0 12.629V1.62954C0 0.729225 0.729231 0 1.62955 0Z" fill="#AED6FD"/>
<path d="M1.62955 15.8867H8.55501C9.45533 15.8867 10.1846 16.787 10.1846 17.5163V20.3681C10.1846 21.2684 9.45533 21.9976 8.55501 21.9976H1.62955C0.729231 21.9976 0 21.0973 0 20.3681V17.5163C0 16.6159 0.729231 15.8867 1.62955 15.8867Z" fill="#AED6FD"/>
<path d="M13.444 7.74219H20.3695C21.2698 7.74219 21.999 8.6425 21.999 9.37173V20.3712C21.999 21.2716 21.2698 22.0008 20.3695 22.0008H13.444C12.5437 22.0008 11.8145 21.1005 11.8145 20.3712V9.37173C11.8145 8.47141 12.5437 7.74219 13.444 7.74219Z" fill="#AED6FD"/>
<path d="M13.444 0H20.3695C21.2698 0 21.999 0.900313 21.999 1.62954V4.48136C21.999 5.38167 21.2698 6.1109 20.3695 6.1109H13.444C12.5437 6.1109 11.8145 5.21058 11.8145 4.48136V1.62954C11.8145 0.729225 12.5437 0 13.444 0Z" fill="#AED6FD"/>
</svg>
