<svg width="20" height="20" viewBox="0 0 20 20" fill="none" xmlns="http://www.w3.org/2000/svg">
<path fill-rule="evenodd" clip-rule="evenodd" d="M19.6184 8.39684L17.0993 7.93884C16.9467 7.40453 16.7176 6.94653 16.4887 6.48854L17.939 4.35113C18.0916 4.12206 18.0916 3.89314 17.939 3.7405L16.1833 2.06112C16.0307 1.9085 15.8016 1.9085 15.649 2.06112L13.5879 3.51143C13.0536 3.28235 12.5956 3.05343 12.0611 2.90079L11.6031 0.38171C11.6031 0.152638 11.374 0 11.1451 0H8.77876C8.54969 0 8.39705 0.15262 8.39705 0.38171L7.93905 2.90079C7.40473 3.05341 6.94673 3.2825 6.41227 3.51143L4.35116 2.06112C4.19854 1.9085 3.96945 1.9085 3.81685 2.06112L2.06114 3.7405C1.98483 3.89312 1.90852 4.12221 2.06114 4.35113L3.51145 6.41222C3.28238 6.94653 3.05345 7.40453 2.90081 7.93899L0.381713 8.39698C0.152639 8.39698 0 8.5496 0 8.77869V11.145C0 11.3741 0.152621 11.603 0.381713 11.603L2.90081 12.061C3.05343 12.5953 3.28253 13.0533 3.51145 13.5878L2.06114 15.6489C1.90852 15.8015 1.90852 16.0306 2.06114 16.1832L3.74052 17.9389C3.89315 18.0915 4.12224 18.0915 4.35116 17.9389L6.41227 16.4886C6.94659 16.7176 7.40458 16.9466 7.93905 17.0992L8.39705 19.6183C8.39705 19.8474 8.54967 20 8.77876 20H11.1451C11.3742 20 11.6031 19.8474 11.6031 19.6183L12.0611 17.0992C12.5954 16.9466 13.0534 16.7175 13.5879 16.4886L15.7253 17.9389C15.8779 18.0915 16.107 18.0915 16.2596 17.9389L17.939 16.1832C18.0916 16.0306 18.0916 15.8015 18.0153 15.6489L16.4885 13.5115C16.7176 13.0535 16.9465 12.5955 17.0992 12.0612L19.6183 11.6032C19.8474 11.6032 20 11.3741 20 11.1452V8.77884C20 8.54976 19.8474 8.39713 19.6183 8.39713L19.6184 8.39684ZM10.0003 5.49605C12.5194 5.49605 14.5806 7.48081 14.5806 9.99993C14.5806 12.519 12.5195 14.5802 10.0003 14.5802C7.48101 14.5802 5.41991 12.5192 5.41991 9.99993C5.41991 7.48071 7.48101 5.49605 10.0003 5.49605Z" fill="white"/>
</svg>
