<svg width="28" height="27" viewBox="0 0 28 27" fill="none" xmlns="http://www.w3.org/2000/svg">
<path fill-rule="evenodd" clip-rule="evenodd" d="M3.31299 2.89562C3.08533 2.66957 2.72962 2.63489 2.46185 2.81213C2.19409 2.98937 2.09061 3.32844 2.21349 3.62387C2.33638 3.91927 2.652 4.08622 2.96632 4.02461C3.28194 3.96167 3.5096 3.68812 3.5096 3.36829C3.5096 3.19105 3.43847 3.02148 3.31299 2.89562ZM2.83697 1.80391C3.53291 1.80391 4.14731 2.25729 4.34653 2.92001H5.04763C5.14723 2.92001 5.24295 2.95212 5.32186 3.01377L6.79777 4.15171H9.67201L9.67331 4.15043C9.92166 4.15043 10.1248 4.35207 10.1248 4.59996C10.1248 4.84656 9.92167 5.04821 9.67331 5.04821H6.64644C6.53391 5.04821 6.42525 5.00582 6.34246 4.93133L4.8937 3.81651H4.34655C4.1758 4.38293 3.6985 4.80675 3.11121 4.9095C2.52396 5.01225 1.92893 4.77721 1.57321 4.30326C1.21749 3.82933 1.16186 3.19485 1.42833 2.66697C1.69609 2.1378 2.24065 1.80391 2.83697 1.80391ZM3.31299 14.1401C3.08533 13.9153 2.72962 13.8794 2.46185 14.0566C2.19538 14.2339 2.09061 14.5742 2.21349 14.8683C2.33638 15.1625 2.652 15.3307 2.96761 15.2691C3.28194 15.2062 3.5096 14.9313 3.5096 14.6128C3.5096 14.4355 3.43847 14.266 3.31299 14.1401ZM2.83697 13.0484C3.53291 13.0484 4.14731 13.5018 4.34653 14.1645H4.89368L6.34115 13.0484C6.42394 12.9739 6.53259 12.9315 6.64513 12.9315H9.672C9.79359 12.9289 9.9113 12.9739 9.99926 13.0587C10.0859 13.1434 10.1351 13.259 10.1351 13.3798C10.1351 13.5018 10.0859 13.6174 9.99926 13.7021C9.9113 13.7856 9.79359 13.8319 9.672 13.828H6.79776L5.32184 14.9659L5.32055 14.9672C5.24294 15.0276 5.14592 15.0597 5.04632 15.0597V15.061H4.34651C4.17577 15.6287 3.69846 16.0512 3.11118 16.154C2.52392 16.2567 1.92889 16.0217 1.57317 15.5477C1.21746 15.0725 1.16182 14.4393 1.4283 13.9114C1.69606 13.3823 2.24065 13.0484 2.83697 13.0484ZM4.51727 6.37347C4.2909 6.14743 3.93518 6.11275 3.66742 6.28999C3.40095 6.46723 3.29746 6.8063 3.42036 7.10172C3.54324 7.39584 3.85757 7.5628 4.17318 7.50115C4.48751 7.4395 4.71387 7.16466 4.71517 6.84612C4.71517 6.66888 4.64404 6.49806 4.51727 6.37347ZM4.04254 5.28049C4.73847 5.28049 5.35159 5.73386 5.5521 6.39659H6.25191C6.35151 6.39659 6.44852 6.42998 6.52614 6.49035L8.00334 7.62828H8.46642C8.71607 7.62828 8.91787 7.82865 8.91787 8.07653C8.91787 8.32442 8.71607 8.52478 8.46642 8.52478H7.85069C7.73815 8.52478 7.63078 8.48368 7.548 8.40791L6.10053 7.2918H5.55209C5.38134 7.8595 4.90404 8.28204 4.31675 8.38607C3.7295 8.48882 3.13446 8.25507 2.77875 7.77984C2.42174 7.30591 2.36611 6.67271 2.63387 6.14354C2.90034 5.61438 3.44621 5.28049 4.04254 5.28049ZM4.51727 10.6619C4.2909 10.4359 3.93518 10.4012 3.66871 10.5784C3.40224 10.7557 3.29875 11.0947 3.42164 11.3888C3.54453 11.683 3.85885 11.8499 4.17318 11.7883C4.4875 11.7266 4.71387 11.4518 4.71516 11.1332C4.71516 10.956 4.64404 10.7865 4.51727 10.6619ZM4.04254 9.56893C4.73847 9.56893 5.35288 10.0236 5.5521 10.6863H6.09925L7.54672 9.57021L7.54801 9.57149C7.6308 9.49572 7.73945 9.45461 7.8507 9.45461H8.46772C8.7122 9.46104 8.90751 9.66011 8.90751 9.90286C8.90751 10.1456 8.71219 10.3447 8.46772 10.3511H8.00465L6.52744 11.489C6.44854 11.5494 6.35152 11.5828 6.25192 11.5815H5.55211C5.38136 12.1492 4.90277 12.5718 4.31677 12.6745C3.72952 12.7773 3.13449 12.5422 2.77877 12.0683C2.42176 11.5943 2.36613 10.9599 2.63389 10.432C2.90165 9.90281 3.44621 9.56893 4.04254 9.56893ZM24.0497 2.26206C24.5515 1.76501 25.3238 1.66355 25.9395 2.01161C26.5539 2.35967 26.8605 3.0725 26.6859 3.75321C26.5113 4.43521 25.9007 4.91686 25.1931 4.93097C24.4856 4.94638 23.8543 4.48913 23.6526 3.81615H23.1067L21.6592 4.93225C21.5764 5.00674 21.4678 5.04913 21.3552 5.04913H18.3284C18.0787 5.04913 17.8769 4.84748 17.8769 4.60088C17.8769 4.35299 18.0787 4.15134 18.3284 4.15134H21.2026L22.6785 3.01341L22.6798 3.01469C22.7574 2.95304 22.8545 2.92093 22.9541 2.92093H23.6539C23.7302 2.67177 23.866 2.44572 24.0523 2.26334L24.0497 2.26206ZM25.1634 2.70001C24.8439 2.70001 24.5684 2.92606 24.5063 3.23687C24.4429 3.54898 24.6123 3.86106 24.9073 3.98308C25.2035 4.10509 25.545 4.00235 25.7235 3.73777C25.9007 3.47319 25.8658 3.11999 25.6394 2.89523C25.5126 2.77064 25.3419 2.70001 25.1634 2.70001ZM24.0497 13.5066C24.5515 13.0108 25.3238 12.9081 25.9395 13.2561C26.5539 13.6042 26.8592 14.317 26.6846 14.9977C26.5113 15.6784 25.9007 16.1601 25.1931 16.1755C24.4856 16.1896 23.8543 15.7336 23.6526 15.0607H22.9527V15.0594C22.8531 15.0594 22.7574 15.0273 22.6785 14.9669L21.2013 13.829H18.3271C18.2055 13.8328 18.0878 13.7866 17.9998 13.7018C17.9131 13.617 17.864 13.5015 17.864 13.3807C17.864 13.26 17.9131 13.1431 17.9998 13.0596C18.0878 12.9749 18.2055 12.9286 18.3271 12.9325H21.3539C21.4665 12.9325 21.5751 12.9736 21.6579 13.0494L23.1067 14.1642H23.6538C23.7301 13.915 23.866 13.689 24.0522 13.5066L24.0497 13.5066ZM25.1634 13.9445C24.8426 13.9445 24.5671 14.168 24.5037 14.4801C24.4403 14.7922 24.6072 15.1056 24.9034 15.2276C25.1983 15.3509 25.5411 15.2494 25.7196 14.9848C25.8994 14.7203 25.8645 14.3684 25.6394 14.1423C25.5139 14.0164 25.3419 13.9445 25.1634 13.9445ZM22.8441 5.74001C23.3447 5.24297 24.1195 5.14022 24.7352 5.48699C25.351 5.83506 25.6575 6.54789 25.4842 7.22988C25.3109 7.91187 24.699 8.39481 23.9914 8.4102C23.2826 8.42561 22.6513 7.96968 22.4482 7.29538H21.9011L20.4536 8.41148H20.4523C20.3695 8.48598 20.2622 8.52836 20.1496 8.52836H19.5326C19.283 8.52836 19.0812 8.32672 19.0812 8.07883C19.0812 7.83094 19.283 7.63058 19.5326 7.63058H19.9957L21.4729 6.49264C21.5518 6.43099 21.6488 6.3976 21.7484 6.3976H22.4495C22.5245 6.14972 22.6604 5.92367 22.8453 5.74001L22.8441 5.74001ZM23.9578 6.17925C23.6383 6.17925 23.3615 6.40402 23.2994 6.71611C23.2373 7.0295 23.4055 7.34159 23.7017 7.4636C23.9979 7.58562 24.3394 7.48158 24.5179 7.217C24.6964 6.95242 24.6602 6.59923 24.4338 6.37446C24.3083 6.24859 24.1363 6.17925 23.9578 6.17925ZM22.8441 10.0285C23.3447 9.53144 24.1195 9.42741 24.7352 9.77547C25.351 10.1222 25.6562 10.8351 25.4829 11.5171C25.3096 12.1991 24.699 12.682 23.9914 12.6974C23.2826 12.7128 22.6513 12.2569 22.4482 11.5826H21.7484C21.6488 11.5839 21.5518 11.5505 21.4742 11.4901L19.997 10.3509H19.5326C19.2882 10.3432 19.0941 10.1454 19.0941 9.90135C19.0941 9.6586 19.2882 9.46082 19.5326 9.4531H20.1497C20.2622 9.4531 20.3696 9.49548 20.4536 9.56998L21.9011 10.6861H22.4483C22.5233 10.4382 22.6591 10.2122 22.8441 10.0285ZM23.9578 10.4664C23.637 10.4664 23.3615 10.6912 23.2981 11.0046C23.236 11.3167 23.4042 11.6288 23.7004 11.7508C23.9966 11.8728 24.3394 11.7701 24.5179 11.5055C24.6952 11.2409 24.6602 10.8877 24.4339 10.6617C24.3084 10.5371 24.1363 10.4664 23.9578 10.4664ZM11.5204 7.05251L14.0001 8.47301L16.4798 7.05251L15.4657 6.4707L14.0001 5.63072L11.5204 7.05251ZM13.5473 12.0897L12.5345 11.5092L11.0702 10.6705L11.0715 7.82817L13.5473 9.2474L13.5473 12.0897ZM14.2601 13.2302H14.2613C14.1048 13.3407 13.8953 13.3407 13.7388 13.2302L12.0856 12.2836L10.3963 11.3152C10.2566 11.2343 10.1712 11.0866 10.1712 10.9274V7.05247C10.1712 6.87651 10.2747 6.71726 10.4364 6.64532L13.7789 4.72906V4.72777C13.9199 4.64814 14.0946 4.64943 14.233 4.73163L17.5792 6.65174C17.7331 6.72752 17.8301 6.88292 17.8301 7.05248V10.9274C17.8301 11.0982 17.7318 11.2549 17.5766 11.3294L15.9157 12.2824L15.8911 12.2952L14.2613 13.2289L14.2601 13.2302ZM14.4502 9.24749L16.926 7.82827V10.6706L15.4618 11.5093L15.4385 11.5234L14.4489 12.0911L14.4515 9.24752L14.4502 9.24749ZM28 18.4653H2.69632e-05V20.0721C-0.00126649 20.2005 0.0440063 20.3238 0.129379 20.4201C0.196641 20.4959 0.293657 20.5409 0.395848 20.5434H27.6041C27.7062 20.5409 27.8033 20.4959 27.8705 20.4201C27.9559 20.3238 28.0012 20.2005 27.9999 20.0721L28 18.4653ZM2.69632e-05 17.5676V0.470079C-0.00126649 0.342926 0.0440063 0.218345 0.129379 0.122013C0.196641 0.0462355 0.293657 0.00128231 0.395848 0H27.6041C27.7062 0.00128428 27.8033 0.0462355 27.8705 0.122013C27.9559 0.218341 28.0012 0.342926 27.9999 0.470079V17.5676H2.69632e-05ZM18.0474 24.3118L9.95127 24.3131C9.2049 24.3157 8.60082 24.9155 8.59824 25.6566V27L19.4019 26.9987V25.6566C19.3993 24.9155 18.7952 24.3157 18.0488 24.3131L18.0474 24.3118ZM10.7569 23.4153H17.2428V21.4387L10.7569 21.44V23.4153Z" fill="white"/>
</svg>
