<svg width="16" height="16" viewBox="0 0 16 16" fill="none" xmlns="http://www.w3.org/2000/svg">
<g clip-path="url(#clip0_1171_7873)">
<path d="M15.3845 12.9905H15.0377V5.009C15.0369 4.31633 14.48 3.75577 13.7943 3.75503H12.8209C12.4371 3.25865 11.7492 3.12356 11.2085 3.43779L9.22036 2.35251C9.22702 2.3025 9.23071 2.25249 9.23071 2.20248C9.20926 1.5322 8.66414 1 7.99994 1C7.33575 1 6.79063 1.5322 6.76918 2.20248C6.76918 2.25249 6.77287 2.30324 6.78027 2.35325L4.79362 3.43928C4.25293 3.12281 3.56359 3.25791 3.17898 3.75501H2.20561C1.51996 3.75575 0.963011 4.31631 0.962272 5.00898V12.9905H0.378698C0.169373 12.9905 0 13.1614 0 13.3726V13.6115C0.0014792 14.9296 1.06066 15.9985 2.36686 16H13.6331C14.9393 15.9985 15.9985 14.9296 16 13.6115C15.9993 13.2689 15.724 12.9912 15.3845 12.9905ZM12.3076 4.47168C12.3246 4.66872 12.2203 4.85608 12.0443 4.94342C11.8683 5.03077 11.6575 5.00015 11.5132 4.86654C11.369 4.73293 11.3202 4.52319 11.3912 4.33958C11.4622 4.15521 11.6382 4.03354 11.8342 4.03354C12.0842 4.02309 12.2958 4.21864 12.3076 4.47168ZM4.16561 8.36497C4.33795 8.3799 4.4844 8.49634 4.53988 8.6613C4.59609 8.82625 4.54949 9.00912 4.42227 9.12706C4.29505 9.24425 4.11015 9.27485 3.95259 9.20469C3.79431 9.13452 3.69224 8.97703 3.69224 8.80236C3.70407 8.55008 3.91561 8.35452 4.16561 8.36497ZM4.54431 7.65961V5.61446C4.77285 5.54281 4.97551 5.40546 5.12788 5.21961L6.86236 6.16606L6.86162 6.16531C6.73144 6.48553 6.73884 6.84604 6.88307 7.15953C7.0273 7.47376 7.29505 7.71187 7.62122 7.81861V9.85038C7.41042 9.9198 7.22255 10.0452 7.07685 10.2131L5.30761 9.24801V9.24876C5.36604 9.10769 5.39636 8.95541 5.39636 8.80241C5.39045 8.2747 5.04504 7.81188 4.54431 7.65961ZM8.4733 6.63702C8.4733 6.83033 8.35791 7.00426 8.18114 7.07815C8.00436 7.15204 7.80022 7.11174 7.66486 6.97514C7.5295 6.83855 7.48956 6.63253 7.56279 6.45414C7.63601 6.27575 7.80835 6.1593 7.99992 6.1593C8.26101 6.1593 8.4733 6.37353 8.4733 6.63702ZM7.99993 10.5542C8.19149 10.5542 8.36384 10.6706 8.43706 10.849C8.51028 11.0274 8.47034 11.2334 8.33499 11.37C8.19963 11.5066 7.99549 11.5469 7.81871 11.473C7.64193 11.3991 7.52654 11.2252 7.52654 11.0319C7.52654 10.7684 7.73883 10.5542 7.99993 10.5542ZM8.37863 9.85032V7.81855C8.70482 7.71256 8.97256 7.47371 9.11678 7.15947C9.26102 6.84598 9.26841 6.48547 9.13823 6.166L10.8734 5.2203C11.0258 5.40616 11.2277 5.54275 11.4555 5.61441V7.65955C10.9548 7.81182 10.6094 8.27461 10.6035 8.80232C10.6035 8.95608 10.6338 9.10761 10.693 9.24941L8.92449 10.2145C8.77804 10.0458 8.58943 9.92047 8.37863 9.85032ZM11.3609 8.80235C11.3439 8.60531 11.4482 8.41796 11.6242 8.33061C11.8002 8.24327 12.011 8.27388 12.1553 8.40749C12.2995 8.5411 12.3483 8.75085 12.2773 8.93446C12.2063 9.11882 12.0302 9.24049 11.8343 9.24049C11.5843 9.25094 11.3727 9.0554 11.3609 8.80235ZM7.99993 1.76443C8.24993 1.75398 8.46147 1.94954 8.4733 2.20258C8.45185 2.4504 8.24623 2.63999 7.99993 2.63999C7.75362 2.63999 7.54801 2.4504 7.52656 2.20258C7.53839 1.94955 7.74993 1.75398 7.99993 1.76443ZM7.99993 3.4043C8.33129 3.40504 8.64934 3.27293 8.88381 3.03706L10.6922 4.02531C10.6338 4.16638 10.6035 4.3179 10.6035 4.47166C10.6035 4.48062 10.605 4.48957 10.605 4.49853L8.63157 5.57336C8.24325 5.336 7.75657 5.33526 7.36825 5.57262L5.39486 4.49629C5.39486 4.48808 5.39634 4.47987 5.39634 4.47166C5.39634 4.31939 5.36601 4.16788 5.30832 4.02755L7.11675 3.03855V3.0378C7.35122 3.27367 7.66931 3.40504 7.99993 3.4043ZM4.16561 4.03353C4.33795 4.04846 4.4844 4.1649 4.53988 4.32986C4.59609 4.49482 4.54949 4.67768 4.42227 4.79562C4.29505 4.91281 4.11089 4.94416 3.95259 4.87399C3.79431 4.80383 3.69224 4.64559 3.69224 4.47167C3.70407 4.21864 3.91561 4.02308 4.16561 4.03353ZM1.7196 5.0091C1.72034 4.73814 1.93778 4.51945 2.20554 4.51945H2.93705C2.96368 5.02926 3.30318 5.46664 3.78691 5.61444V7.65959C3.28618 7.81186 2.94075 8.27464 2.93484 8.80235C2.94667 9.4771 3.49698 10.0145 4.16561 10.0048C4.38529 10.0048 4.60126 9.94661 4.79135 9.83614L6.77516 10.9177C6.77146 10.955 6.76924 10.9931 6.76924 11.0319C6.76924 11.7179 7.32029 12.2739 8.00001 12.2739C8.67974 12.2739 9.23078 11.7179 9.23078 11.0319C9.23078 10.9938 9.22856 10.9565 9.22486 10.9192L11.2092 9.83689C11.3993 9.94661 11.6153 10.0048 11.8342 10.0048C12.5029 10.0145 13.0532 9.47713 13.065 8.80236C13.0591 8.27465 12.7137 7.81187 12.2129 7.65959V5.61445C12.6967 5.46666 13.0362 5.02926 13.0628 4.5202H13.7943C14.0621 4.51945 14.2795 4.73815 14.2803 5.0091V12.9906H1.7196V5.0091ZM13.6331 15.2358H2.36679C1.53322 15.235 0.837949 14.5924 0.763232 13.7549H15.2367C15.162 14.5924 14.4667 15.235 13.6331 15.2358Z" fill="white"/>
</g>
<defs>
<clipPath id="clip0_1171_7873">
<rect width="16" height="16" fill="white"/>
</clipPath>
</defs>
</svg>
