<svg width="16" height="16" viewBox="0 0 16 16" fill="none" xmlns="http://www.w3.org/2000/svg">
<g clip-path="url(#clip0_1171_7805)">
<path d="M7.56695 10.6755V1.64894C7.56695 0.73827 6.82868 0 5.91801 0C5.00733 0 4.26906 0.73827 4.26906 1.64894V10.6755C3.21369 11.3979 2.7529 12.7238 3.13046 13.9457C3.509 15.1666 4.63868 16 5.91793 16C7.19627 16 8.32595 15.1666 8.70439 13.9457C9.08294 12.7239 8.62133 11.398 7.56695 10.6755ZM5.91801 14.4501C5.2303 14.4511 4.64662 13.9447 4.55149 13.2639C4.45537 12.5831 4.87552 11.935 5.53748 11.7458V4.73368C5.53748 4.5236 5.70793 4.35316 5.91801 4.35316C6.12809 4.35316 6.29853 4.5236 6.29853 4.73368V11.7458C6.95951 11.935 7.37966 12.5831 7.28452 13.2639C7.1884 13.9447 6.60572 14.4511 5.91801 14.4501Z" fill="white"/>
<path d="M8.96256 1.38019H10.992C11.2021 1.38019 11.3725 1.20975 11.3725 0.999666C11.3725 0.789586 11.2021 0.619141 10.992 0.619141H8.96256C8.75248 0.619141 8.58203 0.789586 8.58203 0.999666C8.58203 1.20975 8.75248 1.38019 8.96256 1.38019Z" fill="white"/>
<path d="M12.1742 2.84766H8.96256C8.75248 2.84766 8.58203 3.0181 8.58203 3.22818C8.58203 3.43826 8.75248 3.60871 8.96256 3.60871H12.1752H12.1742C12.3843 3.60871 12.5547 3.43826 12.5547 3.22818C12.5547 3.0181 12.3843 2.84766 12.1742 2.84766Z" fill="white"/>
<path d="M8.96256 5.83722H10.992C11.2021 5.83722 11.3725 5.66678 11.3725 5.4567C11.3725 5.24662 11.2021 5.07617 10.992 5.07617H8.96256C8.75248 5.07617 8.58203 5.24662 8.58203 5.4567C8.58203 5.66678 8.75248 5.83722 8.96256 5.83722Z" fill="white"/>
<path d="M12.1742 7.30273H8.96256C8.75248 7.30273 8.58203 7.47318 8.58203 7.68326C8.58203 7.89334 8.75248 8.06379 8.96256 8.06379H12.1752H12.1742C12.3843 8.06379 12.5547 7.89334 12.5547 7.68326C12.5547 7.47318 12.3843 7.30273 12.1742 7.30273Z" fill="white"/>
<path d="M10.992 9.53125H8.96256C8.75248 9.53125 8.58203 9.70169 8.58203 9.91178C8.58203 10.1219 8.75248 10.2923 8.96256 10.2923H10.992C11.2021 10.2923 11.3725 10.1219 11.3725 9.91178C11.3725 9.70169 11.2021 9.53125 10.992 9.53125Z" fill="white"/>
</g>
<defs>
<clipPath id="clip0_1171_7805">
<rect width="16" height="16" fill="white"/>
</clipPath>
</defs>
</svg>
