<svg width="16" height="14" viewBox="0 0 16 14" fill="none" xmlns="http://www.w3.org/2000/svg">
<path d="M15.2664 8.97838V2.26356C15.2664 1.35407 14.5257 0.613281 13.6162 0.613281C13.1724 0.613281 12.758 0.785644 12.4536 1.09736C12.1382 1.40542 11.9659 1.81982 11.9659 2.26356V8.97838C11.4965 9.42579 11.2324 10.0419 11.2324 10.6983C11.2324 12.0112 12.3033 13.0821 13.6162 13.0821C14.9291 13.0821 15.9999 12.0112 15.9999 10.6983C15.9999 10.0419 15.7359 9.42579 15.2664 8.97838ZM13.6162 12.3486C12.7067 12.3486 11.9659 11.6078 11.9659 10.6983C11.9659 10.2033 12.1859 9.73751 12.5636 9.42579L12.6993 9.31577V2.26356C12.6993 2.01785 12.7947 1.79048 12.9707 1.61445C13.1394 1.44209 13.3705 1.34674 13.6162 1.34674C14.1222 1.34674 14.533 1.75748 14.533 2.26356V9.31577L14.6687 9.42579C15.0501 9.73751 15.2664 10.1996 15.2664 10.6983C15.2664 11.6078 14.5257 12.3486 13.6162 12.3486Z" fill="white"/>
<path d="M13.9828 9.85778V4.44485C13.9828 4.24315 13.8177 4.07812 13.616 4.07812C13.4143 4.07812 13.2493 4.24315 13.2493 4.44485V9.85778C12.9266 10.0008 12.6992 10.3199 12.6992 10.6976C12.6992 11.2037 13.11 11.6144 13.616 11.6144C14.1221 11.6144 14.5329 11.2037 14.5329 10.6976C14.5329 10.3235 14.3055 10.0008 13.9828 9.85778Z" fill="white"/>
<path d="M10.7085 1.18454C10.4738 1.02317 10.2207 0.872816 9.96037 0.740793C8.98854 0.249376 7.94703 0 6.85784 0C3.07686 0 0 3.07686 0 6.85784C0 10.6388 3.07686 13.7193 6.85784 13.7193C7.07788 13.7193 7.27591 13.712 7.44827 13.6937C7.58396 13.6863 7.71599 13.6717 7.84801 13.6497C7.98003 13.6313 8.10839 13.6057 8.23307 13.58C9.12789 13.4003 9.96037 13.0446 10.7085 12.5311C10.8772 12.4175 10.9175 12.1864 10.8038 12.0214C10.6902 11.8527 10.4591 11.8124 10.2941 11.926C9.63031 12.3844 8.88585 12.6962 8.08638 12.8612C7.9727 12.8869 7.85901 12.9052 7.74166 12.9235C7.63164 12.9419 7.52162 12.9529 7.39326 12.9602C7.34192 12.9639 7.28325 12.9675 7.22824 12.9712V11.9517C7.22824 11.75 7.06321 11.585 6.86151 11.585C6.65981 11.585 6.49478 11.75 6.49478 11.9517V12.9639C3.41058 12.7805 0.938827 10.3088 0.755462 7.2209H1.76764C1.96934 7.2209 2.13436 7.05587 2.13436 6.85417C2.13436 6.65247 1.96934 6.48744 1.76764 6.48744H0.755462C0.938827 3.40325 3.41058 0.931492 6.49478 0.748128V1.7603C6.49478 1.962 6.65981 2.12703 6.86151 2.12703C7.06321 2.12703 7.22824 1.962 7.22824 1.7603V0.740793C8.06805 0.788468 8.87485 1.00851 9.63031 1.3899C9.86135 1.50726 10.0851 1.63928 10.2941 1.78597C10.4114 1.86299 10.5251 1.94733 10.6352 2.03535C10.7928 2.1637 11.0239 2.13803 11.1522 1.98034C11.2806 1.82264 11.2549 1.59161 11.0972 1.46325C10.9725 1.36057 10.8369 1.26522 10.7085 1.1772V1.18454Z" fill="white"/>
<path d="M6.81399 3.18945C6.61229 3.18945 6.44727 3.35448 6.44727 3.55618V6.84941C6.44727 7.05111 6.61229 7.21614 6.81399 7.21614H9.1684C9.3701 7.21614 9.53513 7.05111 9.53513 6.84941C9.53513 6.64771 9.3701 6.48268 9.1684 6.48268H7.18072V3.55618C7.18072 3.35448 7.0157 3.18945 6.81399 3.18945Z" fill="white"/>
</svg>
