<svg width="24" height="24" viewBox="0 0 24 24" fill="none" xmlns="http://www.w3.org/2000/svg">
<path fill-rule="evenodd" clip-rule="evenodd" d="M5.33811 8.08223L14.5093 2.73845L11.5259 1L2.35548 6.34453L5.33811 8.08223ZM8.10872 10.5259L11.1695 12.3097V22.9993L2 17.6557V6.96641L4.89738 8.65502V13.0967C4.89751 13.1559 4.91204 13.214 4.93969 13.2662C4.96735 13.3183 5.00728 13.3627 5.05596 13.3956C5.10465 13.4285 5.1606 13.4488 5.21888 13.4547C5.27717 13.4606 5.336 13.4519 5.39019 13.4295L6.29325 13.1371L7.49161 14.43C7.54033 14.4828 7.60365 14.5195 7.67333 14.5354C7.74301 14.5514 7.81584 14.5458 7.88233 14.5194C7.94882 14.493 8.0059 14.447 8.04615 14.3874C8.08639 14.3278 8.10794 14.2574 8.10799 14.1853V10.5266L8.10872 10.5259ZM17.7189 4.60881L20.6971 6.34453L11.5259 11.6888L8.54773 9.95309L17.7189 4.60881ZM5.6108 9.07209V12.6043L6.2908 12.3841C6.35503 12.3634 6.42377 12.3616 6.48901 12.3788C6.55425 12.396 6.6133 12.4315 6.6593 12.4813L7.39629 13.2748V10.111L5.61153 9.0711L5.6108 9.07209ZM15.221 3.15328L17.0075 4.19472L7.83628 9.53875L6.0498 8.49732L15.221 3.15328ZM2.80185 17.0071L5.27251 18.447C5.35415 18.4947 5.45124 18.5078 5.54241 18.4833C5.63359 18.4587 5.71138 18.3987 5.75869 18.3163C5.80599 18.2339 5.81892 18.1359 5.79464 18.0439C5.77036 17.9518 5.71086 17.8733 5.62922 17.8256L3.15856 16.3854C3.07705 16.3404 2.98135 16.3294 2.89189 16.3546C2.80242 16.3799 2.72628 16.4394 2.67973 16.5206C2.63317 16.6017 2.61988 16.698 2.6427 16.7889C2.66551 16.8798 2.72263 16.9581 2.80185 17.0071ZM2.82372 15.4571L5.29438 16.897C5.37588 16.942 5.47158 16.953 5.56105 16.9277C5.65051 16.9025 5.72665 16.8429 5.77321 16.7618C5.81977 16.6807 5.83306 16.5844 5.81024 16.4935C5.78742 16.4026 5.73031 16.3243 5.65108 16.2753L3.18042 14.8357C3.09879 14.7879 3.0017 14.7749 2.91052 14.7994C2.81935 14.8239 2.74155 14.8839 2.69425 14.9663C2.64695 15.0487 2.63402 15.1467 2.65829 15.2388C2.68257 15.3308 2.74208 15.4093 2.82372 15.4571ZM19.8238 13.9353H18.4854V14.4174H18.4839C18.4839 14.4942 18.4594 14.5691 18.414 14.6308C18.3686 14.6926 18.3048 14.738 18.2319 14.7603C18.1383 14.7891 18.0415 14.8243 17.9422 14.8659C17.8525 14.9036 17.7683 14.943 17.6897 14.9842C17.6212 15.0289 17.5395 15.0486 17.4584 15.0399C17.3773 15.0313 17.3015 14.9948 17.2438 14.9366L16.9058 14.5954L15.9597 15.5505L16.2977 15.8915C16.3514 15.9458 16.3864 16.0161 16.3975 16.0919C16.4087 16.1678 16.3955 16.2453 16.3599 16.313C16.314 16.3998 16.2702 16.4939 16.2285 16.5952C16.1916 16.685 16.1598 16.7725 16.1332 16.8578C16.1161 16.9385 16.0722 17.0109 16.0086 17.0628C15.9451 17.1147 15.8658 17.143 15.7841 17.1429H15.3055V18.4933H15.7831V18.4966C15.8593 18.4965 15.9335 18.5213 15.9947 18.5671C16.0559 18.6129 16.1009 18.6773 16.1231 18.751C16.1516 18.8455 16.1865 18.9429 16.2277 19.0431C16.2647 19.1338 16.3038 19.2188 16.3449 19.298C16.3893 19.3671 16.4088 19.4496 16.4002 19.5315C16.3916 19.6135 16.3554 19.69 16.2977 19.7483L15.9597 20.0892L16.9058 21.0443L17.2428 20.7034C17.2966 20.6492 17.3662 20.6138 17.4414 20.6025C17.5166 20.5913 17.5934 20.6046 17.6605 20.6407C17.7464 20.6871 17.8395 20.7313 17.9398 20.7733C18.0287 20.8105 18.1157 20.8427 18.1999 20.8695C18.2799 20.8867 18.3516 20.931 18.403 20.9951C18.4545 21.0592 18.4826 21.1391 18.4827 21.2216V21.7039H19.8223V21.2224C19.8224 21.1455 19.8469 21.0706 19.8923 21.0089C19.9378 20.9471 20.0017 20.9017 20.0746 20.8794C20.1683 20.8507 20.2648 20.8155 20.364 20.7738C20.4539 20.7364 20.5382 20.6967 20.6166 20.6555C20.6851 20.6108 20.7667 20.5911 20.8478 20.5998C20.929 20.6085 21.0047 20.6449 21.0624 20.7031L21.4005 21.0443L22.3465 20.0892L22.0087 19.7483C21.9551 19.6939 21.9201 19.6237 21.9089 19.5478C21.8978 19.4719 21.9109 19.3945 21.9466 19.3267C21.9924 19.2399 22.0363 19.1459 22.078 19.0445C22.1149 18.9548 22.1467 18.8673 22.1736 18.782C22.1906 18.7013 22.2345 18.629 22.298 18.577C22.3615 18.5251 22.4407 18.4968 22.5224 18.4968H23V17.1447H22.5246V17.1432C22.4484 17.1432 22.3742 17.1185 22.313 17.0727C22.2518 17.0269 22.2068 16.9624 22.1846 16.8888C22.1564 16.7943 22.1213 16.6969 22.0802 16.5967C22.0429 16.5059 22.0037 16.421 21.9628 16.3418C21.9184 16.2726 21.899 16.1901 21.9076 16.1082C21.9162 16.0262 21.9524 15.9497 22.0102 15.8915L22.348 15.5505L21.4019 14.5954L21.0639 14.9366C21.0101 14.9908 20.9405 15.0261 20.8654 15.0375C20.7902 15.0488 20.7134 15.0355 20.6463 14.9996C20.5601 14.953 20.4669 14.9087 20.3667 14.8669C20.2778 14.8295 20.1908 14.7975 20.1065 14.7705C20.0266 14.7533 19.955 14.709 19.9035 14.6449C19.8521 14.5808 19.824 14.5008 19.824 14.4184L19.8238 13.9353ZM18.4011 13.2162C18.2352 13.2165 18.0762 13.2832 17.9589 13.4017L17.9567 13.4039C17.8392 13.5223 17.7729 13.6827 17.7722 13.8503V14.1617C17.7373 14.1751 17.7032 14.1887 17.6695 14.2029C17.6359 14.217 17.6025 14.2314 17.5688 14.2468L17.3507 14.0266C17.2326 13.9078 17.0728 13.8411 16.9061 13.8411C16.7395 13.8411 16.5796 13.9078 16.4616 14.0266L15.3957 15.102C15.278 15.2208 15.2119 15.3819 15.2119 15.5499C15.2119 15.7179 15.278 15.8791 15.3957 15.9979L15.6138 16.218C15.5986 16.2523 15.5838 16.2862 15.5701 16.32C15.5563 16.3537 15.5426 16.3884 15.5293 16.4236H15.221C15.1388 16.4237 15.0574 16.4402 14.9815 16.4721C14.9057 16.5041 14.8368 16.5508 14.7788 16.6096L14.7773 16.6111C14.719 16.6696 14.6728 16.7391 14.6412 16.8157C14.6095 16.8923 14.5932 16.9744 14.5931 17.0574V18.5786C14.5928 18.6621 14.6089 18.7448 14.6403 18.822C14.6717 18.8992 14.7179 18.9693 14.7762 19.0285C14.8345 19.0877 14.9038 19.1346 14.9802 19.1668C15.0565 19.1989 15.1383 19.2155 15.221 19.2156H15.5293C15.5426 19.2511 15.5563 19.2856 15.5701 19.3195C15.5838 19.3535 15.5986 19.3872 15.6138 19.4212L15.3957 19.6414C15.278 19.7605 15.2119 19.9219 15.2119 20.0901C15.2119 20.2583 15.278 20.4196 15.3957 20.5387L15.6563 20.8016L11.8826 23V12.3104L21.0521 6.96641V13.9482C21.0184 13.971 20.9869 13.9971 20.9583 14.0261L20.7401 14.2463C20.7062 14.2309 20.6726 14.2163 20.6392 14.2021C20.6057 14.188 20.5713 14.1746 20.5365 14.1612V13.8498C20.5363 13.6815 20.4701 13.5202 20.3522 13.4012C20.2343 13.2822 20.0745 13.2152 19.9078 13.215L18.4011 13.2162ZM20.0795 16.8875C20.2935 17.1035 20.4266 17.3876 20.4563 17.6915C20.4859 17.9954 20.4103 18.3002 20.2422 18.5541C20.0741 18.808 19.824 18.9953 19.5345 19.0839C19.245 19.1726 18.934 19.1571 18.6545 19.0403C18.375 18.9234 18.1442 18.7124 18.0016 18.4431C17.859 18.1738 17.8133 17.8629 17.8723 17.5634C17.9313 17.2639 18.0914 16.9943 18.3253 16.8006C18.5591 16.6069 18.8523 16.501 19.1548 16.501C19.3266 16.5007 19.4967 16.5348 19.6554 16.6011C19.8141 16.6675 19.9582 16.7648 20.0795 16.8875ZM19.1548 15.7811C19.6223 15.7812 20.0753 15.9449 20.4366 16.2442C20.7979 16.5436 21.0452 16.9602 21.1364 17.4229C21.2275 17.8857 21.1569 18.3661 20.9365 18.7822C20.7161 19.1983 20.3596 19.5244 19.9277 19.7049C19.4958 19.8854 19.0152 19.9092 18.5679 19.7722C18.1206 19.6352 17.7342 19.3459 17.4745 18.9536C17.2148 18.5613 17.0979 18.0902 17.1437 17.6207C17.1895 17.1511 17.3953 16.7121 17.7258 16.3785C17.9131 16.1887 18.1358 16.0381 18.3809 15.9354C18.6261 15.8327 18.8889 15.78 19.1543 15.7802L19.1548 15.7811Z" fill="#AED6FD"/>
</svg>
